<svg xmlns="http://www.w3.org/2000/svg" viewBox="0 0 40 40" id="illustrator"><path d="m13.74 23.92-1.29 4.92c0 .13-.08.16-.25.16H9.8c-.17 0-.2-.05-.17-.25l4.65-16.27a5.65 5.65 0 0 0 .17-1.36c0-.11 0-.16.13-.16H18c.12 0 .17 0 .2.16l5.21 17.67c0 .13 0 .21-.13.21h-2.71c-.13 0-.21 0-.25-.15L19 23.92Zm4.55-2.65c-.46-1.81-1.54-5.78-1.95-7.69-.34 1.91-1.21 5.15-1.9 7.69Zm7.37-9.1a1.67 1.67 0 0 1 3.34 0 1.56 1.56 0 0 1-1.7 1.67 1.54 1.54 0 0 1-1.64-1.67Zm.2 3.72c0-.13.05-.2.19-.2h2.57c.13 0 .2.05.2.2V28.8c0 .13 0 .2-.2.2h-2.53c-.17 0-.22-.08-.22-.21v-12.9Z"></path></svg>