<svg width="866" height="900" viewBox="0 0 866 900" fill="none" xmlns="http://www.w3.org/2000/svg">
<g opacity="0.3">
<g style="mix-blend-mode:screen">
<path d="M-72.9473 530.34L-66.1233 537.176L-59.2994 544L-52.4754 550.824L-45.6392 557.66L-38.8153 564.484L-31.9913 571.308L-25.1673 578.132L-18.3312 584.956L-11.5072 591.78L-4.68321 598.616L2.14078 605.44L8.97693 612.264H18.6259H28.2748H37.936H47.5849H57.2461H66.895H76.5562H86.2052H95.8663H105.515H115.176H124.825H134.474H144.135H153.784H163.446L170.27 619.1L177.106 625.924H186.755H196.404H206.065H215.714H225.375H235.024H244.685H254.334H263.995H273.644H283.293H292.954H302.603H312.264H321.925L328.749 632.748L335.573 639.572L342.397 646.409L349.221 653.232L356.045 660.056L362.881 666.88L369.705 673.704L376.529 680.541L383.366 687.365L390.19 694.188L397.014 701.025L403.837 707.849L410.674 714.673L417.498 721.497L424.322 728.321L431.146 735.145L437.97 741.981L444.806 748.805L451.63 755.629V765.29V774.939V784.6V794.249L444.806 801.073L437.97 807.897L431.146 814.733L424.322 821.557L417.498 828.381L410.674 835.217L403.837 842.041L397.014 848.865L390.19 855.689L383.366 862.525L376.529 869.349L369.705 876.173L362.881 882.997L356.045 889.821L349.221 896.657L342.397 903.481L335.573 910.305L328.749 917.129L321.925 923.965H312.264H302.603H292.954H283.293H273.644H263.995H254.334H244.685H235.024H225.375H215.714H206.065H196.404L189.58 917.129L182.756 910.305L175.932 903.481L169.096 896.657L162.272 889.821V880.172V870.511V860.862V851.213" stroke="#2F353A" stroke-width="0.46" stroke-linecap="round" stroke-linejoin="round"/>
</g>
<g style="mix-blend-mode:screen">
<path d="M-73.3999 529.899L-66.5637 536.723H-56.9148H-47.2536H-37.6046H-27.9435H-18.2946H-8.63343H1.01553H10.6645H20.3257H29.9868H39.6358H49.297H58.9459H68.5948H78.256H87.9049H97.5661H107.227L114.051 529.899L120.875 523.075L127.699 516.251L134.523 509.427L141.347 502.603L148.183 495.767L155.007 488.943L161.831 482.119L168.667 475.283L175.491 468.459L182.315 461.635L189.139 454.811L195.963 447.975H205.624H215.273H224.934H234.583H244.245H253.894H263.555H273.204H282.853H292.514L299.338 441.151L306.162 434.327L312.998 427.503L319.822 420.679L326.646 413.843L333.47 407.019L340.306 400.195L347.13 393.359L353.954 386.535L360.778 379.711L367.614 372.887L374.438 366.063L381.262 359.239L388.098 352.403L394.922 345.579L401.746 338.755L408.57 331.919H418.219H427.88H437.541H447.19H456.851L463.676 325.095L470.499 318.271L477.323 311.447L484.147 304.623L490.984 297.787L497.808 290.963L504.632 284.139L511.455 277.315L518.292 270.479L525.116 263.655L531.94 256.831L538.764 249.994L545.588 243.171L552.424 236.347H562.073H571.734H581.383H591.044H600.693H610.354H620.003H629.652H639.313H648.962H658.623H668.272H677.933H687.582H697.243H706.892H716.541L723.378 229.523L730.201 222.699L737.025 215.875L743.862 209.038L750.686 202.215L757.509 195.391L764.334 188.567L771.157 181.73L777.994 174.906L784.818 168.082L791.642 161.258L798.466 154.422L805.302 147.598L812.126 140.774" stroke="#2F353A" stroke-width="0.37" stroke-linecap="round" stroke-linejoin="round"/>
</g>
<g style="mix-blend-mode:screen">
<path d="M-72.8611 530.437L-66.025 537.274L-59.201 544.097L-52.377 550.921L-45.553 557.745L-38.7291 564.569L-31.8929 571.393L-25.0689 578.23L-18.245 585.054L-11.4088 591.877L-4.58479 598.714L2.23913 605.538L9.06311 612.362L15.8993 619.186L22.7233 626.01L29.5472 632.846L36.3712 639.67L43.1951 646.494V656.143V665.804V675.465V685.114V694.775V704.424V714.073V723.734V733.383V743.044V752.705V762.354V772.003V781.664V791.313L36.3712 798.137L29.5472 804.974L22.7233 798.137" stroke="#2F353A" stroke-width="0.49" stroke-linecap="round" stroke-linejoin="round"/>
</g>
<g style="mix-blend-mode:screen">
<path d="M-72.7886 530.511L-65.9525 537.348L-59.1285 544.172L-52.3045 550.996L-45.4684 557.82L-38.6444 564.644L-31.8204 571.48L-24.9964 578.304L-18.1725 585.128L-11.3363 591.952L-4.51228 598.788L2.31164 605.612V615.273V624.922V634.571V644.232V653.881L9.13562 660.705L15.9718 667.541L22.7958 674.365L29.6197 681.189L36.4437 688.025H46.1049" stroke="#2F353A" stroke-width="0.79" stroke-linecap="round" stroke-linejoin="round"/>
</g>
<g style="mix-blend-mode:screen">
<path d="M-73.2163 530.083L-66.3923 536.907L-59.5683 543.731L-52.7444 550.555L-45.9082 557.379V567.04V576.701V586.35V596.011V605.66V615.309V624.97V634.619L-39.0842 641.443L-32.2602 648.279L-25.4241 655.103L-18.6001 661.927L-11.7761 668.764L-4.95219 675.588L1.88404 682.412L8.70802 689.236L15.5319 696.059L22.3559 702.896L29.1799 709.72L36.0161 716.544L42.84 723.368L49.664 730.204H59.3252H68.9741L75.7981 723.368V713.719L68.9741 706.895L62.1501 700.058L55.3262 693.234" stroke="#2F353A" stroke-width="0.49" stroke-linecap="round" stroke-linejoin="round"/>
</g>
<g style="mix-blend-mode:screen">
<path d="M-72.874 530.426L-66.05 537.25L-59.2139 544.074L-52.3899 550.91L-45.5659 557.734L-38.7298 564.558L-31.9058 571.394L-25.0818 578.218L-18.2579 585.042L-11.4339 591.866L-4.6099 598.69L2.22625 605.526L9.05023 612.35L15.8742 619.174L22.7104 625.998L29.5344 632.834L36.3583 639.658L43.1823 646.482L50.0185 653.306H59.6674H69.3286H78.9775H88.6265H98.2877H107.949H117.598H127.247L134.071 646.482L140.907 653.306L147.731 660.13L154.555 666.967L161.391 673.791L168.215 680.614L175.039 687.451L181.863 694.275L188.687 701.099H198.348H207.997L201.173 694.275L194.349 687.451L187.525 680.614L180.701 673.791L173.865 666.967L167.041 660.13L160.217 653.306" stroke="#2F353A" stroke-width="0.95" stroke-linecap="round" stroke-linejoin="round"/>
</g>
<g style="mix-blend-mode:screen">
<path d="M-72.812 530.486L-65.988 537.31L-59.1519 544.147L-52.3279 550.971L-45.5039 557.794L-38.6799 564.618L-31.8438 571.455L-25.0198 578.279L-18.1958 585.103L-11.3719 591.927L-4.53565 598.75L2.28834 605.574L9.11225 612.411L15.9362 619.235L22.7725 626.059V635.72V645.369V655.03V664.679V674.328V683.989V693.65V703.299V712.96V722.609V732.258V741.919V751.568V761.229V770.878V780.539L15.9362 787.363V797.012L22.7725 803.849L29.5964 810.673L36.4204 817.496L43.2444 824.32H52.9055H62.5544H72.2156H81.8645H91.5257H101.175H110.836H120.485H130.134H139.795H149.444V814.672V805.01H139.795L132.959 811.847L126.135 818.671H116.486H106.837H97.1757L90.3517 811.847V802.185H80.6906H71.0416H61.3804H51.7315H42.0826L35.2463 809.009" stroke="#2F353A" stroke-width="0.35" stroke-linecap="round" stroke-linejoin="round"/>
</g>
<g style="mix-blend-mode:screen">
<path d="M-73.449 529.839L-66.625 536.663L-59.8011 543.499L-52.9771 550.323L-46.1532 557.147L-39.3169 563.971L-32.493 570.807L-25.669 577.631L-18.8451 584.455L-12.0088 591.291L-5.18492 598.115L1.63907 604.939L8.46306 611.763L15.287 618.587L22.1232 625.411H31.7722H41.4333H51.0822H60.7434H70.3924H80.0535L86.8775 632.247L93.7015 639.071L100.525 645.895L107.349 652.731L114.186 659.555L121.01 666.379L127.834 673.203L134.67 680.027L141.494 686.864L148.318 693.688L155.142 700.511L161.966 707.335L168.79 714.172L175.626 720.996L182.45 727.82L189.274 734.656H198.935H208.584H218.245H227.894H237.555H247.204H256.865H266.514H276.175L282.999 727.82L289.823 720.996L296.647 714.172V704.511V694.849V685.2L303.471 678.376L310.307 671.552L303.471 664.728L296.647 657.892L289.823 651.068L282.999 644.244H273.35H263.689H254.028L247.204 651.068L240.38 657.892L233.556 664.728L226.72 671.552L219.896 678.376L213.072 685.2H203.423" stroke="#2F353A" stroke-width="0.37" stroke-linecap="round" stroke-linejoin="round"/>
</g>
<g style="mix-blend-mode:screen">
<path d="M-73.6689 529.631V539.28V548.941V558.59V568.239V577.9V587.549V597.21V606.872V616.521V626.169V635.831V645.48V655.141V664.79V674.451V684.1V693.761V703.41L-66.8449 710.234L-60.0087 717.058L-53.1848 723.894L-46.3608 730.718L-39.5368 737.542L-32.7128 744.366L-25.8889 751.202L-19.0527 758.026L-12.2287 764.85L-5.40477 771.686L1.43146 778.51L8.25545 785.334V794.983V804.644V814.293V823.954V833.603V843.265V852.913V862.575V872.224V881.885V891.534V901.195V910.844V920.493L15.0794 927.329V936.978V946.639V956.288V965.949V975.598V985.259V994.908V1004.56V1014.22V1023.87V1033.53V1043.18V1052.84V1062.49V1072.15V1081.8V1091.45V1101.11L21.9033 1107.93L28.7273 1114.77L35.5635 1121.59L42.3875 1128.42L49.2115 1135.24L56.0354 1142.06L62.8716 1148.9L69.6956 1155.72L76.5195 1162.55L83.3435 1169.37V1179.03V1188.68V1198.34V1207.99V1217.65V1227.3L76.5195 1234.13L69.6956 1240.96H60.0344H50.3854H40.7243H31.0753H21.4264H11.7653H2.1163L-4.71993 1234.13H-14.3688V1243.79V1253.44V1263.1" stroke="#2F353A" stroke-width="0.72" stroke-linecap="round" stroke-linejoin="round"/>
</g>
<g style="mix-blend-mode:screen">
<path d="M-74.0966 529.19L-67.2726 536.026L-60.4487 542.85L-53.6247 549.674L-46.7884 556.498L-39.9645 563.334L-33.1405 570.158L-26.3166 576.982V586.643V596.292V605.941V615.602V625.251V634.912V644.574V654.223V663.871V673.533L-19.4804 680.357L-12.6564 687.181L-5.83244 694.017L0.991547 700.841L7.81546 707.665L14.6517 714.489L21.4757 721.325L28.2996 728.149L35.1358 734.973L41.9598 741.797L48.7837 748.621L55.6077 755.457L62.4317 762.281H72.0928H81.7418H91.403H101.052H110.713H120.362L113.538 755.457L106.714 748.621L99.8901 741.797L93.0539 734.973L86.2299 728.149L79.406 721.325" stroke="#2F353A" stroke-width="0.79" stroke-linecap="round" stroke-linejoin="round"/>
</g>
<g style="mix-blend-mode:screen">
<path d="M-73.6931 529.606H-64.0319H-54.383H-44.7218H-35.0729H-25.4239L-18.5877 522.782L-11.7638 515.946L-4.93981 509.122L1.88417 502.298L8.72032 495.474L15.5443 488.65L22.3683 481.814L29.1923 474.99L36.0284 468.166L42.8524 461.342L49.6764 454.506V444.857V435.196V425.547H40.0274H30.3662L37.1902 432.371L44.0142 439.195" stroke="#2F353A" stroke-width="0.59" stroke-linecap="round" stroke-linejoin="round"/>
</g>
<g style="mix-blend-mode:screen">
<path d="M-73.7913 529.509L-66.9673 536.333L-60.1312 543.157L-53.3072 549.993L-46.4832 556.817L-39.6471 563.641L-32.8231 570.465L-25.9991 577.301L-19.1752 584.125L-12.3512 590.949L-5.5272 597.773L1.30895 604.597L8.13294 611.433L14.9569 618.257L21.7931 625.081L28.6171 631.917L35.441 638.741H45.09H54.7511H64.4001H74.0613H83.7224H93.3714H103.02H112.681H122.33H131.992H141.64L148.464 631.917L155.301 625.081H164.95" stroke="#2F353A" stroke-width="0.46" stroke-linecap="round" stroke-linejoin="round"/>
</g>
<g style="mix-blend-mode:screen">
<path d="M-74.6232 528.677L-67.7992 535.501L-60.9753 542.325L-54.1391 549.149L-47.3151 555.985L-40.4912 562.809L-33.655 569.633L-26.831 576.469L-20.0071 583.293L-13.1831 590.117L-6.3591 596.941L0.477049 603.765L7.30104 610.589L14.125 617.425L20.9489 624.249L27.7852 631.073L34.6091 637.909L41.4331 644.733L48.2693 651.557H57.9182H67.5672H77.2283H86.8773H96.5384H106.187H115.849H125.498H135.159H144.808H154.457H164.118L170.942 658.381L177.766 665.217L184.602 672.041L191.426 678.865L198.25 685.689L205.074 692.513L211.898 699.349L218.734 706.173V715.835V725.483L211.898 732.307L205.074 725.483L198.25 718.66L191.426 711.836L184.602 704.999L177.766 698.175L170.942 691.351H161.293H151.632L158.456 698.175L165.292 704.999L172.116 711.836L178.94 718.66L185.776 725.483L192.6 732.307L199.424 725.483L192.6 718.66H182.939V708.998" stroke="#2F353A" stroke-width="0.39" stroke-linecap="round" stroke-linejoin="round"/>
</g>
<g style="mix-blend-mode:screen">
<path d="M-74.5741 528.726L-67.7501 535.55L-60.914 542.374L-54.09 549.21L-47.266 556.034L-40.442 562.858L-33.6181 569.682L-26.7819 576.506L-19.9579 583.342L-13.134 590.166L-6.29774 596.99L0.526249 603.826L7.35016 610.65L14.1741 617.474L20.9981 624.298L27.8343 631.122L34.6583 637.946V647.607L41.4823 654.431V664.092V673.741L48.3062 680.577L55.1424 687.401L61.9664 694.225L68.7904 701.049L75.6143 707.873L82.4505 714.697L89.2745 721.534L96.0984 728.357L102.922 735.181L109.746 742.018L116.583 748.842L123.407 755.666L130.231 762.49L137.067 769.314L143.891 776.15L150.715 782.974L157.539 789.798V799.459V809.108V818.769V828.418V838.079V847.728V857.377V867.038V876.699V886.348V896.009V905.658V915.307V924.968V934.617V944.279L150.715 951.102L143.891 957.926L137.067 964.763L130.231 971.587L123.407 978.411L116.583 985.235L109.746 992.058V1001.72L102.922 1008.54H93.2734H83.6123H73.9633H64.3022H54.6532H44.9921H35.3431H25.682L18.858 1001.72V992.058V982.409V972.761V963.099V953.451V943.789V934.14" stroke="#2F353A" stroke-width="0.64" stroke-linecap="round" stroke-linejoin="round"/>
</g>
<g style="mix-blend-mode:screen">
<path d="M-74.4761 528.823V538.472V548.134V557.782V567.431V577.093V586.742L-81.3001 593.578V603.227V612.888V622.537V632.198V641.847V651.508V661.157V670.806V680.467V690.128V699.777V709.426V719.087V728.736V738.397V748.046L-74.4761 754.883V764.531V774.18V783.842V793.491V803.152V812.801V822.462V832.111V841.772V851.421V861.07V870.731V880.38V890.041V899.702V909.351L-81.3001 916.175V925.824V935.485V945.146V954.795V964.457V974.106V983.755V993.416V1003.06V1012.73L-88.1241 1019.55L-94.9603 1026.37L-101.784 1033.21V1042.86V1052.52V1062.17V1071.82V1081.48V1091.13V1100.79V1110.44V1120.1L-94.9603 1126.92L-88.1241 1133.75L-81.3001 1140.57L-74.4761 1147.4L-67.6521 1154.23L-60.816 1161.06L-53.992 1167.88L-47.168 1174.72L-40.3441 1181.54L-33.5201 1188.36L-26.6839 1195.19L-19.86 1202.02V1211.67V1221.32V1230.98V1240.63V1250.29V1259.95V1269.6V1279.25V1288.91L-13.036 1295.74V1305.39V1315.05L-6.21202 1321.87L0.624131 1328.71L7.44812 1335.53L14.2721 1342.36L21.0961 1349.18L27.92 1356V1365.66V1375.31V1384.97V1394.62V1404.28V1413.93V1423.59V1433.24V1442.9V1452.55V1462.21V1471.86V1481.52V1491.17V1500.82V1510.48" stroke="#2F353A" stroke-width="0.77" stroke-linecap="round" stroke-linejoin="round"/>
</g>
<g style="mix-blend-mode:screen">
<path d="M-74.2922 529.007L-67.4683 535.831L-60.6443 542.655L-53.8204 549.479L-46.9842 556.315H-37.3352H-27.674H-18.0252H-8.36396H1.285H10.9461H20.5951H30.2563H39.9052H49.5664H59.2153H68.8643H78.5254H88.1744H97.8356H107.484L114.321 563.139L121.145 569.963L127.969 576.787L134.793 583.623L141.617 590.447L148.453 597.271L155.277 604.095L162.101 610.919L168.925 617.755L175.761 624.579V634.24L168.925 641.064H159.276H149.614" stroke="#2F353A" stroke-width="0.32" stroke-linecap="round" stroke-linejoin="round"/>
</g>
<g style="mix-blend-mode:screen">
<path d="M-74.525 528.774L-67.7011 535.598V545.247V554.908V564.557V574.218V583.867V593.529V603.177V612.839V622.488V632.149V641.798V651.459V661.108V670.757V680.418V690.067L-60.8771 696.903L-54.0408 703.727L-47.2169 710.551L-40.3929 717.387L-33.5567 724.211L-26.7328 731.035L-19.9088 737.859L-13.0848 744.683L-6.26092 751.507L0.563067 758.343L7.39929 765.167L14.2232 771.991L21.0472 778.827L27.8834 785.651L34.7073 792.475L41.5313 799.299H51.1925H60.8415H70.4904H80.1516H89.8005H99.4616H109.111H118.772H128.421H138.082H147.731L154.555 806.123V815.784V825.433L147.731 832.257L140.907 839.093L134.083 845.917L127.247 852.754L120.423 859.578L113.599 866.402L106.775 873.226L99.9386 880.05V889.711L93.1146 896.535L86.2907 903.359L79.4667 910.195L72.6305 917.019L65.8066 923.843L58.9826 930.667L52.1586 937.503L45.3346 944.327L38.4985 951.151L31.6745 957.975V967.624V977.285V986.946V996.595V1006.26V1015.91V1025.55V1035.22V1044.86V1054.53V1064.17V1073.84V1083.48V1093.15V1102.79V1112.44L38.4985 1119.28H48.1596H57.8085H67.4697H77.1187H86.7798L93.6038 1112.44L100.428 1105.62L107.264 1098.8L114.088 1091.97H123.737H133.398L140.222 1098.8V1108.44V1118.11V1127.75V1137.42V1147.08V1156.73V1166.37V1176.04V1185.68L133.398 1192.52L126.562 1199.34L119.738 1206.17L112.914 1213.01L106.09 1219.83" stroke="#2F353A" stroke-width="0.44" stroke-linecap="round" stroke-linejoin="round"/>
</g>
<g style="mix-blend-mode:screen">
<path d="M-74.525 528.774L-67.6888 535.598L-60.8648 542.434L-54.0408 549.258L-47.2169 556.082L-40.3807 562.906L-33.5567 569.73L-26.7328 576.567L-19.9088 583.39L-13.0726 590.214L-6.24868 597.051L0.575308 603.875L7.39929 610.699L14.2354 617.523V627.184V636.833V646.482L7.39929 653.318V643.657V634.008V624.359V614.698" stroke="#2F353A" stroke-width="0.58" stroke-linecap="round" stroke-linejoin="round"/>
</g>
<g style="mix-blend-mode:screen">
<path d="M-74.256 529.043L-67.4198 535.867L-60.5958 542.703L-53.7719 549.527L-46.9479 556.351L-40.1117 563.175L-33.2877 570.012L-26.4637 576.836L-19.6398 583.659L-12.8158 590.483L-5.97962 597.307L0.84429 604.144L7.66828 610.968H17.3295H26.9784H36.6396H46.2885H55.9497L62.7736 617.792L69.5976 624.628L76.4216 631.452L83.2578 638.276L90.0817 645.1H99.7429H109.392H119.041H128.702H138.351H148.012H157.661H167.322H176.971L183.795 638.276L190.619 631.452H200.28H209.929H219.59H229.239H238.9H248.549H258.211H267.86L274.683 638.276" stroke="#2F353A" stroke-width="0.51" stroke-linecap="round" stroke-linejoin="round"/>
</g>
<g style="mix-blend-mode:screen">
<path d="M-74.6232 528.677L-67.7871 535.501L-60.9631 542.337L-54.1391 549.161L-47.303 555.985L-40.479 562.821L-33.655 569.645L-26.831 576.469L-20.0071 583.293L-13.1709 590.117L-6.34687 596.953L0.477041 603.777L7.30103 610.601H16.9622H26.6111H36.2723H45.9213H55.5824H65.2313H74.8925H84.5414H94.2026H103.852H113.513L120.337 617.437H129.986H139.647H149.296H158.957H168.606H178.267H187.916H197.565H207.226H216.875H226.536H236.185H245.846H255.495H265.156L271.98 624.261L278.804 631.085L285.628 637.909L292.465 644.733L299.288 651.569L306.112 658.393L312.936 665.217L319.773 672.041L326.597 678.877L333.421 685.701L340.244 692.525L347.081 699.349L353.905 706.186L360.729 713.01L367.553 719.833L374.389 726.657L381.213 733.481L388.037 740.318L394.861 747.142H404.522H414.171H423.832H433.481H443.142H452.791H462.452H472.101L478.925 740.318L485.749 733.481L492.585 726.657L499.409 719.833L506.233 713.01L513.069 706.186L519.893 699.349L526.717 692.525L533.541 685.701L540.377 678.877L547.201 672.041L554.025 665.217L560.849 658.393L567.673 651.569L574.51 644.733L581.333 637.909H590.982H600.644H610.292H619.954H629.603H639.264H648.913H658.574H668.223H677.884H687.533H697.182H706.843H716.492H726.153H735.802H745.463H755.112H764.773L771.597 644.733L778.421 651.569L785.245 658.393L792.081 665.217L798.905 672.041L805.729 678.877L812.553 685.701V695.35" stroke="#2F353A" stroke-width="0.68" stroke-linecap="round" stroke-linejoin="round"/>
</g>
<g style="mix-blend-mode:screen">
<path d="M-75.3319 527.967L-68.4957 534.791H-58.8468H-49.1856H-39.5366H-29.8877H-20.2266L-13.4026 527.967H-3.74145H5.90751H15.5687H25.2177H34.8665H44.5277H54.1767H63.8378H73.499H83.148H92.7969H102.458H112.107H121.768H131.417H141.078H150.727H160.388H170.037L176.861 534.791L183.685 541.628L190.521 548.451H200.17H209.832H219.481H229.142H238.791H248.452H258.101H267.75H277.411H287.072H296.721H306.382L313.206 541.628L320.03 534.791L326.854 527.967H336.503" stroke="#2F353A" stroke-width="0.42" stroke-linecap="round" stroke-linejoin="round"/>
</g>
<g style="mix-blend-mode:screen">
<path d="M-75.3807 527.918L-68.5446 534.742V544.403V554.052V563.713V573.375V583.024V592.673V602.334V611.983V621.644V631.293V640.954V650.603V660.264V669.913V679.562V689.223V698.872V708.533V718.182V727.843V737.492V747.153V756.802V766.463V776.112V785.774V795.423V805.084V814.733V824.382V834.043V843.692V853.353V863.002V872.663V882.312L-75.3807 889.136L-82.2047 895.972V905.621V915.282V924.931V934.592V944.241V953.902V963.551V973.2V982.861L-75.3807 989.685L-68.5446 996.522L-61.7206 1003.35L-54.8966 1010.17L-48.0727 1016.99L-41.2365 1023.82L-34.4125 1030.65L-27.5886 1037.48L-20.7646 1044.3L-13.9284 1051.13L-7.10444 1057.96L-0.280455 1064.79L6.54353 1071.61L13.3797 1078.43L6.54353 1085.27L-0.280455 1092.09L-7.10444 1098.92V1108.57V1118.23V1127.88V1137.54V1147.2V1156.85V1166.5V1176.16V1185.81V1195.47V1205.12V1214.78V1224.43V1234.09V1243.74V1253.39V1263.05L-13.9284 1269.87V1279.53V1289.18L-7.10444 1296.02V1305.67V1315.32L-0.280455 1322.14L6.54353 1328.98L13.3797 1335.8L20.2037 1342.62L27.0277 1349.45L33.8516 1356.28L40.6878 1363.11L47.5118 1369.93L54.3358 1376.76L61.1597 1383.59L67.9837 1390.42L74.8199 1397.24H84.4688H94.13H103.779H113.44L120.264 1390.42L127.088 1383.59L133.912 1376.76L140.736 1369.93L147.572 1363.11" stroke="#2F353A" stroke-width="0.42" stroke-linecap="round" stroke-linejoin="round"/>
</g>
<g style="mix-blend-mode:screen">
<path d="M-75.0139 528.285L-68.1899 535.109V544.758V554.42V564.068V573.73V583.379V593.04V602.689V612.35V621.999V631.648V641.309V650.958V660.619L-61.3537 667.443L-54.5297 674.279L-47.7057 681.103L-40.8818 687.927L-34.0578 694.751L-27.2339 701.575L-20.3977 708.399L-13.5737 715.235L-6.74974 722.059L0.0864164 728.883L6.9104 735.719L13.7344 742.543L20.5584 735.719H30.2195" stroke="#2F353A" stroke-width="0.63" stroke-linecap="round" stroke-linejoin="round"/>
</g>
<g style="mix-blend-mode:screen">
<path d="M-75.4181 527.869L-68.5941 534.706H-58.9451H-49.284H-39.6351H-29.9739H-20.325H-10.676H-1.01483H8.6463H18.2953H27.9565H37.6054L44.4293 527.869H54.0905H63.7395H73.4006H83.0496L89.8736 521.045L96.7097 514.221L103.534 507.398L110.358 500.561L117.182 493.737L124.006 486.913L130.842 480.089L137.666 473.265L144.49 466.429L151.314 459.605L158.15 452.781L164.974 445.945H174.635H184.284H193.933L200.757 452.781H210.418H220.067H229.728H239.389H249.038H258.687H268.348H277.997H287.658H297.307H306.969H316.618H326.279H335.928H345.589H355.238H364.887H374.548H384.209L391.033 445.945H400.682H410.343H419.992H429.653H439.302H448.963H458.612H468.273H477.922H487.571H497.232H506.881H516.543H526.192H535.853L542.677 439.121L549.501 432.297L556.324 425.473L563.161 418.649L569.985 411.825L576.809 404.989L583.633 398.165L590.469 391.341L597.293 384.505L604.117 377.681L610.941 370.857L617.777 364.033L624.601 357.209L631.425 350.373L638.249 343.549L645.085 336.725L651.909 329.889L658.733 323.065L665.557 316.241L672.393 309.417H682.042H691.691H701.352H711.001H720.662H730.311H739.972L746.796 302.581L753.62 295.757L760.444 288.933L767.28 282.109H776.929H786.578H796.24H805.901H815.55H825.211H834.86H844.509H854.17H863.819" stroke="#2F353A" stroke-width="0.42" stroke-linecap="round" stroke-linejoin="round"/>
</g>
<g style="mix-blend-mode:screen">
<path d="M-76.0535 527.246L-69.2296 534.07H-59.5807H-49.9195H-40.2706H-30.6094H-20.9604H-11.2993L-4.47531 527.246V517.585L2.34868 510.748L9.17266 503.924L15.9966 497.1L22.8328 490.277L29.6568 483.453L36.4807 476.616L43.3169 469.792L50.1409 462.968L56.9648 456.144L63.7888 449.308L70.625 442.484L77.4489 435.66L84.2729 428.836H93.9219H103.583H113.232H122.893H132.542H142.203H151.852H161.513H171.162H180.811H190.472H200.121H209.783H219.444L226.268 422L233.092 415.176V405.527V395.866V386.217V376.556V366.907V357.246V347.597V337.936V328.287V318.638V308.977V299.328V289.667V280.018L239.916 273.181L246.74 266.357L253.576 259.533L260.4 252.71L267.224 245.886L274.06 239.049L280.884 232.225L287.708 225.401L294.532 218.577L301.356 211.741H311.017H320.666H330.327H339.976H349.637L356.461 204.917L363.285 198.093L370.109 191.269L376.933 184.445V174.784L383.769 167.96H393.418H403.079V177.609V187.27V196.919V206.568V216.229V225.891V235.54V245.201V254.85L396.255 261.674L389.419 268.498L382.595 275.322L375.771 282.158L368.947 288.982L362.111 295.806L355.287 302.642L348.463 309.466L341.639 316.29L334.803 323.114L327.979 329.95L321.155 336.774L314.331 343.598L307.495 350.422L300.671 357.246H291.022H281.361H271.712H262.051L255.227 364.082L248.403 370.906L241.567 377.73L234.743 384.566L241.567 391.39L248.403 398.214" stroke="#2F353A" stroke-width="0.97" stroke-linecap="round" stroke-linejoin="round"/>
</g>
<g style="mix-blend-mode:screen">
<path d="M-75.7231 527.564L-68.8991 534.388V544.049V553.698V563.359V573.008V582.669V592.318V601.979V611.628V621.277L-62.0751 628.113L-55.2512 634.937L-48.4272 641.761L-41.6032 648.597L-34.7671 655.421L-27.9431 662.245L-21.1191 669.069V678.731V688.38V698.028V707.69V717.351V727V736.661V746.31V755.959V765.62L-27.9431 772.444L-34.7671 779.268L-41.6032 786.092L-48.4272 792.928L-55.2512 799.752L-62.0751 806.576V816.237V825.886L-55.2512 832.71H-45.6022H-35.941H-26.2921H-16.6309H-6.96974H2.67914V842.371V852.02V861.681V871.33V880.991L-4.14477 887.815V897.477V907.125V916.774L-10.981 923.598L-17.805 930.435L-24.6289 937.259L-31.4529 944.082L-38.2891 950.919V960.568V970.229V979.878V989.527V999.188V1008.84L-45.113 1002.01L-51.937 995.189L-58.761 988.353L-65.5849 981.529L-72.4211 974.705L-79.2451 967.881L-72.4211 961.057L-65.5849 954.233L-58.761 947.397L-51.937 940.573V930.911V921.263V911.614V901.953V892.304H-42.288H-32.6269H-22.978H-13.3168" stroke="#2F353A" stroke-width="0.59" stroke-linecap="round" stroke-linejoin="round"/>
</g>
<g style="mix-blend-mode:screen">
<path d="M-76.2242 527.063L-69.4003 533.887H-59.7514H-50.0902H-40.4412H-30.7801H-21.1311H-11.4699H-1.82105H7.82791L14.6641 527.063V517.414V507.753H24.313H33.962H43.6232H53.2843L60.1083 514.589L66.9323 521.413H76.5812L83.4174 514.589L90.2414 507.753L97.0654 500.929L103.889 494.105L110.725 487.269L117.549 480.445L124.373 473.621L131.21 466.797L138.034 459.973L144.858 453.137L151.681 446.313L158.505 439.489H148.857H139.195H129.546H119.897H110.236H100.575L93.7512 446.313L86.9272 453.137L80.1033 459.973L73.2793 466.797L66.4431 473.621L59.6192 480.445V490.106V499.755L66.4431 506.591L73.2793 499.755L80.1033 492.931L86.9272 486.107L93.7512 479.271L100.575 472.447L107.411 465.623L114.235 458.799L121.059 451.975V442.314V432.665H111.41H101.749H92.1002H82.439" stroke="#2F353A" stroke-width="0.65" stroke-linecap="round" stroke-linejoin="round"/>
</g>
<g style="mix-blend-mode:screen">
<path d="M-77.032 526.255L-70.2081 533.079H-60.5591H-50.9101H-41.249H-31.5878H-21.9389H-12.2777H-2.62878H7.02018H16.6813H26.3303H35.9915H45.6403L52.4766 526.255L59.3006 519.431L66.1245 512.607L72.9485 505.783L79.7724 498.947L86.6086 492.123L93.4326 485.299L100.257 478.463L107.093 471.639L113.917 464.815L120.741 457.991L127.565 451.167V441.506V431.857H137.226H146.875H156.524H166.185H175.846H185.495H195.156H204.805H214.454H224.115H233.764L240.6 438.681H230.939H221.29H211.629H201.98H192.319H182.67H173.009H163.36" stroke="#2F353A" stroke-width="0.46" stroke-linecap="round" stroke-linejoin="round"/>
</g>
<g style="mix-blend-mode:screen">
<path d="M-77.1657 526.121L-70.3417 532.957H-60.6928H-51.0439H-41.3827H-31.7215H-22.0726H-12.4114L-5.58742 526.121L1.23649 519.297L8.06048 512.473L14.8845 505.649L21.7206 498.813L28.5446 491.989L35.3686 485.165L42.1926 478.329L49.0287 471.505L55.8527 464.681L62.6767 457.857L69.5006 451.033L76.3368 444.209V434.548V424.886V415.237V405.576L69.5006 398.752H79.1618" stroke="#2F353A" stroke-width="0.47" stroke-linecap="round" stroke-linejoin="round"/>
</g>
<g style="mix-blend-mode:screen">
<path d="M-77.3984 525.901H-67.7495H-58.0883H-48.4394H-38.7782H-29.1171H-19.4681H-9.81916H-0.157967H9.49092H19.1521H28.8011H38.4622H48.1112H57.7723H67.4212H77.0702L83.9064 519.077L90.7303 512.241L97.5543 505.417L104.391 498.593L111.214 491.769L118.038 484.933L124.862 478.109L131.686 471.285L138.51 464.448L145.347 457.625L152.171 450.801L158.994 443.977H168.656H178.317H187.966H197.615H207.276H216.925H226.586H236.235H245.896H255.545H265.206H274.855H284.504L291.34 437.153L298.164 430.329L304.988 423.492L311.824 416.669L318.648 409.845L325.472 403.008L332.296 396.184L339.12 389.36L345.944 382.536L352.78 375.712L359.604 368.876L366.428 362.052L373.252 355.228L380.088 348.404L386.912 341.568L393.736 334.744L400.573 327.92L407.397 321.084L414.221 314.26V304.611V294.962V285.301V275.652V265.991V256.342V246.681V237.032V227.371V217.722V208.061V198.412V188.751V179.102V169.44L407.397 176.264V166.615" stroke="#2F353A" stroke-width="0.55" stroke-linecap="round" stroke-linejoin="round"/>
</g>
<g style="mix-blend-mode:screen">
<path d="M-78.4258 524.873V534.534V544.183V553.845V563.493V573.155V582.804V592.453V602.114V611.763V621.424V631.073V640.734V650.383V660.044V669.693V679.342V689.003V698.664V708.313V717.974V727.623V737.272V746.933V756.582V766.243V775.905V785.554L-85.2498 792.378V802.039V811.688V821.337V830.998V840.647V850.308V859.957V869.618V879.267V888.928V898.577V908.238V917.887V927.548V937.197V946.858V956.507V966.156L-78.4258 972.992L-71.5896 979.816L-64.7656 986.64L-57.9416 993.477L-51.1055 1000.3L-44.2815 1007.12L-37.4575 1013.95L-30.6336 1020.77L-23.8096 1027.6L-16.9734 1034.43L-10.1495 1041.26H-0.500527L6.3357 1034.43L13.1596 1027.6H22.8086H32.4698H42.1187H51.7799H61.4288H71.0778H80.7389H90.4001H100.049H109.71L116.534 1034.43L123.358 1041.26L130.182 1048.08L137.006 1054.92L143.83 1061.74V1071.39V1081.05V1090.7V1100.36V1110.01V1119.67V1129.32V1138.98V1148.63V1158.28V1167.94L150.666 1174.76L157.49 1181.59L164.314 1188.42L171.15 1195.25L177.974 1202.07L184.798 1208.91L191.622 1215.73L198.446 1222.56L205.282 1229.38L212.106 1236.2L218.93 1243.03L225.754 1249.86L232.59 1256.69L239.414 1263.51L246.238 1270.35H255.9H265.549H275.198H284.859H294.52H304.169H313.818H323.479" stroke="#2F353A" stroke-width="0.42" stroke-linecap="round" stroke-linejoin="round"/>
</g>
<g style="mix-blend-mode:screen">
<path d="M-74.5983 528.702V519.041L-67.7621 512.217L-60.9381 505.393L-54.1141 498.569L-47.2902 491.733L-40.4662 484.909L-33.6423 478.085L-26.8061 471.261L-19.9821 464.437L-13.1581 457.6L-6.32198 450.777L0.502005 443.953L7.32599 437.116L14.1499 430.292L20.9739 423.468L27.8101 416.644L34.634 409.821V400.159V390.51V380.849V371.2V361.539V351.89V342.229V332.58V322.931V313.27V303.609V293.96V284.299V274.65" stroke="#2F353A" stroke-width="0.5" stroke-linecap="round" stroke-linejoin="round"/>
</g>
<g style="mix-blend-mode:screen">
<path d="M-75.0509 528.249V518.588V508.939V499.278V489.629V479.98V470.319V460.658V451.009V441.347V431.699V422.05V412.388V402.739V393.078V383.429V373.768V364.119V354.458V344.809V335.16V325.499V315.838L-68.2269 309.014L-61.3907 302.19L-54.5668 295.366L-47.7428 288.53L-40.9188 281.706L-34.0948 274.882L-27.2587 268.058L-20.4347 261.234L-13.6107 254.398L-6.78679 247.574L0.0494354 240.75L6.87342 233.926L13.6973 227.09L20.5213 220.266L27.3575 213.442V203.793L20.5213 196.957V187.308V177.646V167.998V158.336L27.3575 151.512H37.0064H46.6554V141.863V132.202" stroke="#2F353A" stroke-width="0.79" stroke-linecap="round" stroke-linejoin="round"/>
</g>
<g style="mix-blend-mode:screen">
<path d="M-75.0139 528.285V518.624V508.975V499.314V489.665V480.016V470.355L-68.1899 463.531L-61.3537 456.707L-54.5297 449.871L-47.7057 443.047L-40.8818 436.223L-34.0578 429.399L-27.2216 422.563L-20.3977 415.739L-13.5737 408.915L-6.74974 402.091L0.0864164 395.267L6.9104 388.431L13.7344 381.607L20.5705 374.783L27.3945 367.947L34.2185 361.123L41.0425 354.299L47.8664 347.475L54.6904 340.651L61.5266 333.827V324.166V314.504V304.855V295.194V285.545V275.896V266.235V256.586V246.925V237.264V227.615V217.966V208.305V198.656V189.007V179.346V169.685V160.036V150.375V140.726L68.3505 133.902L75.1745 127.078L82.0107 120.242L88.8347 113.418L95.6586 106.594L102.483 99.7574L109.307 92.9334L116.143 86.1094L122.967 79.2855L129.791 72.4615L136.627 65.6253L143.451 58.8013L150.275 51.9774L157.099 45.1534H166.76L173.584 38.3172L180.408 31.4933L187.232 24.6693L194.068 17.8331L200.892 11.0091L207.716 4.18519L214.54 -2.63879H224.201H233.85H243.511H253.16H262.809H272.47H282.131L288.955 4.18519H298.604H308.265H317.914H327.563H337.225H346.886H356.535H366.196L373.02 11.0091L379.844 17.8331L386.668 24.6693L393.492 31.4933L400.328 38.3172L407.152 45.1534V54.8024V64.4635V74.1125V83.7614V93.4226V103.084V112.733L400.328 119.557L393.492 126.393L386.668 133.217V123.556V113.907V104.246L393.492 97.4216V87.7604V78.1115V68.4625V58.8013" stroke="#2F353A" stroke-width="0.51" stroke-linecap="round" stroke-linejoin="round"/>
</g>
<g style="mix-blend-mode:screen">
<path d="M-75.6621 527.637V517.976V508.327V498.678V489.017V479.368V469.707V460.046V450.397V440.748V431.087V421.438V411.777L-68.8381 404.953L-62.0019 398.129L-55.178 391.305L-48.354 384.468L-41.5178 377.644L-34.6939 370.82L-27.8699 363.997L-21.0459 357.173L-14.2219 350.336L-7.39799 343.512L-0.561763 336.688L6.26222 329.864L13.0861 323.028L19.9224 316.204L26.7463 309.38L33.5703 302.556L40.3942 295.72L47.2305 288.896L54.0544 282.072V272.411V262.762V253.101V243.452V233.791V224.142V214.493V204.832V195.183V185.522V175.873V166.212V156.563V146.902L60.8784 140.078L67.7024 133.254L74.5263 126.43L81.3625 119.593L88.1865 112.769L95.0104 105.946L101.834 99.1215L108.671 92.2853L115.495 85.4614L122.319 78.6374L129.142 71.8134L135.966 64.9773L142.803 58.1533L149.627 51.3293L156.451 44.5054L163.287 37.6692L170.111 30.8452L176.935 24.0213V14.3723V4.71114V-4.93782V-14.599V-24.2479L183.759 -31.0841L190.583 -37.9081L197.419 -44.732L204.243 -51.556L211.067 -58.38L217.891 -65.2161L224.727 -72.0401V-81.6891V-91.3502V-100.999V-110.66V-120.309V-129.97V-139.619V-149.281V-158.93L231.551 -165.753L238.375 -172.59L245.211 -179.414L252.035 -186.238L258.859 -193.062L265.683 -199.898L272.507 -206.722V-216.371V-226.032V-235.681V-245.342V-254.991V-264.652V-274.301V-283.95V-293.611V-303.26V-312.921V-322.582V-332.231V-341.88V-351.541V-361.19V-370.852" stroke="#2F353A" stroke-width="0.36" stroke-linecap="round" stroke-linejoin="round"/>
</g>
<g style="mix-blend-mode:screen">
<path d="M-75.7845 527.503V517.854V508.205L-68.9606 501.381L-62.1366 494.545L-55.3127 487.721L-48.4764 480.897L-41.6525 474.06L-34.8285 467.237L-27.9923 460.413L-21.1684 453.589L-14.3444 446.765L-7.52043 439.928L-0.696441 433.104L6.13971 426.281L12.9637 419.457L19.7877 412.62L26.6116 405.796L33.4478 398.972L40.2718 392.136L47.0957 385.312L53.9197 378.488L60.7559 371.664V362.015V352.354V342.705V333.044V323.383V313.734V304.085V294.424V284.775V275.114V265.465V255.804V246.155V236.494V226.845V217.196V207.535V197.886V188.224V178.563L67.5798 171.739V162.09V152.441V142.78V133.131V123.47V113.809V104.16V94.5111V84.8499V75.201V65.5398V55.8909L74.4038 49.0669L81.2278 42.2307L88.0518 35.4068L94.888 28.5828L101.712 21.7588L108.536 14.9226L115.372 8.09865L122.196 1.2747L129.02 -5.54928L135.844 -12.3855L142.668 -19.2094L149.504 -26.0334L156.328 -32.8574L163.152 -39.6935L169.976 -46.5175L176.812 -53.3415L183.636 -60.1655L190.46 -66.9894L197.284 -73.8256V-83.4746L204.108 -90.3108L210.944 -97.1347L217.768 -103.959L224.592 -110.783L231.428 -117.607L238.252 -124.443L245.076 -131.267L251.9 -138.091L258.736 -144.915L265.561 -151.751V-161.4V-171.061L272.384 -177.885L279.208 -184.709L286.032 -191.533L292.869 -198.357L299.692 -205.181L306.517 -212.017L313.353 -218.841L320.177 -225.665L327.001 -232.501L333.825 -239.325L340.648 -246.149L347.473 -252.973V-262.634V-272.283L354.309 -279.107L361.133 -285.943L367.957 -292.767L374.793 -299.591L381.617 -306.427L388.441 -313.251L395.265 -320.075" stroke="#2F353A" stroke-width="0.46" stroke-linecap="round" stroke-linejoin="round"/>
</g>
<g style="mix-blend-mode:screen">
<path d="M-76.5182 526.781L-69.6943 519.957L-62.858 513.121L-56.0341 506.297L-49.2102 499.473L-42.3862 492.649H-32.725H-23.0761H-13.4149H-3.76593H5.8952L12.7192 485.813L19.5432 478.989L26.3672 472.165L33.2033 465.341L40.0273 458.505L46.8513 451.681H56.5124L49.6763 458.505L42.8523 465.341L36.0283 472.165L29.2043 478.989L22.3681 485.813L15.5442 492.649L8.72017 499.473L1.88402 506.297L-4.93997 513.121" stroke="#2F353A" stroke-width="0.87" stroke-linecap="round" stroke-linejoin="round"/>
</g>
<g style="mix-blend-mode:screen">
<path d="M-76.726 526.573L-69.8898 519.749L-63.0658 512.913L-56.2419 506.089L-49.4179 499.265L-42.5939 492.441L-35.7699 485.605L-28.9338 478.781L-22.1098 471.957L-15.2858 465.133L-8.44965 458.309L-1.62567 451.473L5.19832 444.649L12.0222 437.825L18.8585 430.988L25.6824 424.165L32.5064 417.341H42.1553H51.8165H61.4654L68.3016 424.165V433.826L61.4654 440.65L54.6415 447.474" stroke="#2F353A" stroke-width="0.61" stroke-linecap="round" stroke-linejoin="round"/>
</g>
<g style="mix-blend-mode:screen">
<path d="M-76.2863 527.014L-69.4623 520.19L-62.6261 513.354L-55.8021 506.53L-48.9782 499.706L-42.1542 492.882L-35.3302 486.046L-28.4941 479.222L-21.6701 472.398L-14.8461 465.574L-8.00997 458.75L-1.18598 451.914L5.638 445.09L12.4619 438.266L19.2859 431.43L26.1221 424.606L32.946 417.782V408.133V398.472V388.823L39.77 381.999L46.594 375.162L53.4302 368.338L60.2541 361.514L67.0781 354.678L73.9021 347.854L80.7383 341.03L87.5623 334.206L94.3862 327.382L101.21 320.546L108.046 313.722L114.87 306.898L121.694 300.074L128.531 293.238L135.354 286.414L142.178 279.59L149.002 272.766L155.826 265.93L162.65 259.106H172.311H181.973H191.622H201.283H210.932H220.581H230.242L223.406 252.282V242.633L230.242 235.797L237.066 228.973L243.89 222.149L250.726 215.325L257.55 208.489V198.84V189.179V179.53V169.881L250.726 163.045L243.89 156.221L237.066 149.397L230.242 142.561L223.406 135.737L216.582 128.913L209.758 122.089V112.428V102.779V93.1175V83.4685H219.407H229.068H238.717H248.378H258.027H267.688H277.337L284.173 90.2925L290.997 97.1287L297.821 103.953L304.645 110.777L311.469 117.601L318.305 124.425L325.129 131.248L331.953 138.085L338.789 144.909V154.558V164.219V173.88V183.529H329.128H319.479H309.818H300.157H290.508L283.684 176.705V167.044V157.395V147.734V138.085V128.424V118.775V109.126V99.4645L290.508 106.288L297.332 113.112L304.156 119.949L310.992 126.773L317.816 133.597L324.64 140.42L331.476 147.257" stroke="#2F353A" stroke-width="0.6" stroke-linecap="round" stroke-linejoin="round"/>
</g>
<g style="mix-blend-mode:screen">
<path d="M-76.6898 526.61L-69.8536 519.786L-63.0296 512.962L-56.2056 506.126L-49.3816 499.302L-42.5577 492.478L-35.7215 485.642L-28.8975 478.818L-22.0736 471.994L-15.2374 465.17L-8.4134 458.346L-1.58949 451.522L5.2345 444.686L12.0585 437.862L18.8946 431.038L25.7186 424.202L32.5426 417.378V407.729V398.068V388.419V378.77V369.109V359.447V349.798V340.137V330.488V320.839V311.178L39.3665 304.354L46.1905 297.53L53.0267 290.694L59.8506 283.87L66.6746 277.046L73.5109 270.222L80.3348 263.386L87.1588 256.562V246.913V237.252V227.603V217.942V208.293V198.632V188.983V179.334V169.673L93.9827 162.849L100.807 156.012L107.643 149.188L114.467 142.365L121.291 135.541L128.115 128.704L134.951 121.88L141.775 115.056L148.599 108.232L155.423 101.409L162.247 94.5723L169.083 87.7484L175.907 80.9244L182.731 74.0882L189.555 67.2642L196.391 60.4403L203.215 53.6163L210.039 46.7923L216.875 39.9684V30.3072V20.646V10.9971V1.34816V-8.313V-17.962V-27.6231V-37.2721L210.039 -44.096V-53.7572L203.215 -60.5812L196.391 -67.4051L203.215 -74.2413L210.039 -81.0653L216.875 -87.8893" stroke="#2F353A" stroke-width="0.42" stroke-linecap="round" stroke-linejoin="round"/>
</g>
<g style="mix-blend-mode:screen">
<path d="M-76.995 526.305L-70.171 519.481L-63.3471 512.645L-56.5109 505.821L-49.6869 498.997L-42.863 492.173L-36.0267 485.337L-29.2028 478.513L-22.3788 471.689L-15.5549 464.865L-8.73088 458.029L-1.89472 451.205L4.92926 444.381H14.5782H24.2393H33.8883H43.5495" stroke="#2F353A" stroke-width="0.54" stroke-linecap="round" stroke-linejoin="round"/>
</g>
<g style="mix-blend-mode:screen">
<path d="M-77.3131 525.986L-70.4891 519.162L-63.653 512.326L-56.829 505.502L-50.005 498.678L-43.1811 491.854L-36.3571 485.03L-29.5209 478.194L-22.697 471.37L-15.873 464.546H-6.21178H3.43718H13.0983H22.7473H32.4085L39.2324 457.71V448.061" stroke="#2F353A" stroke-width="0.44" stroke-linecap="round" stroke-linejoin="round"/>
</g>
<g style="mix-blend-mode:screen">
<path d="M-77.4959 525.803L-70.6597 518.979L-63.8357 512.155L-57.0118 505.331L-50.1756 498.507L-43.3516 491.671L-36.5277 484.847L-29.7037 478.023L-22.8797 471.187L-16.0435 464.363L-9.21955 457.539L-2.39556 450.715L4.42842 443.879L11.2646 437.055L18.0886 430.231H27.7497L34.5737 437.055H24.9125" stroke="#2F353A" stroke-width="0.66" stroke-linecap="round" stroke-linejoin="round"/>
</g>
<g style="mix-blend-mode:screen">
<path d="M-77.0433 526.255L-70.2194 519.431L-63.3831 512.595L-56.5592 505.771L-49.7352 498.947L-42.9113 492.111L-36.0873 485.287H-26.4261H-16.7772H-7.11599H2.53289H12.1941L19.0181 478.463L25.842 471.639L32.666 464.815L39.5022 457.991L46.3261 451.154" stroke="#2F353A" stroke-width="0.72" stroke-linecap="round" stroke-linejoin="round"/>
</g>
<g style="mix-blend-mode:screen">
<path d="M-78.145 525.142L-71.321 518.318L-64.4971 511.494L-57.6731 504.67L-50.8492 497.834L-44.013 491.01L-37.189 484.186L-30.365 477.362L-23.5289 470.526L-16.7049 463.702L-9.8809 456.878L-3.05691 450.054L3.767 443.23L10.6032 436.394L17.4272 429.57L24.2511 422.746V413.085V403.436V393.775V384.126V374.477V364.816V355.154V345.505V335.844V326.195V316.546V306.885V297.236V287.575V277.926L17.4272 271.09L10.6032 264.266L17.4272 257.442" stroke="#2F353A" stroke-width="0.43" stroke-linecap="round" stroke-linejoin="round"/>
</g>
<g style="mix-blend-mode:screen">
<path d="M-81.3486 525.472L-74.5125 518.648L-67.6885 511.825V502.163V492.514V482.853V473.204V463.543V453.894V444.233V434.584V424.935V415.274V405.613V395.964V386.303L-60.8645 379.479L-54.0405 372.655L-47.2166 365.831L-40.3804 359.007L-33.5564 352.183L-26.7325 345.347L-19.8963 338.523L-13.0723 331.699L-6.24836 324.863L0.575625 318.039L7.39961 311.215V301.566V291.905V282.256V272.594V262.933L14.2358 256.109L21.0597 249.285L27.8837 242.461L34.7076 235.637L41.5439 228.813L48.3679 221.977L55.1918 215.153L62.0158 208.329L68.852 201.493L75.6759 194.669L82.4999 187.845L89.3239 181.021L96.1479 174.185L102.984 167.361H112.633H122.294L129.118 160.537L135.942 153.713L142.766 146.889L149.602 140.053L156.426 133.229L163.25 126.405L170.086 119.569L176.91 112.745L183.734 105.921L190.558 99.097L197.382 92.273L204.218 85.449L211.042 78.6128L217.866 71.7889V62.1399L224.69 55.3037L231.526 48.4798L238.351 41.6558L245.174 34.8196L251.998 27.9957L258.835 21.1717L265.659 14.3477V4.68654V-4.96238V-14.6235V-24.2725V-33.9337L258.835 -40.7576L251.998 -47.5816L245.174 -54.4055L238.351 -61.2295L231.526 -68.0657V-77.7146V-87.3758V-97.0248V-106.686" stroke="#2F353A" stroke-width="0.57" stroke-linecap="round" stroke-linejoin="round"/>
</g>
<g style="mix-blend-mode:screen">
<path d="M-81.153 525.277L-74.3167 518.454L-67.4927 511.617L-60.6688 504.793L-53.8326 497.969L-47.0086 491.145L-40.1847 484.309L-33.3607 477.485L-26.5367 470.661L-19.7006 463.837L-12.8766 457.013L-6.05261 450.177L0.771303 443.353L7.60753 436.529L14.4315 429.693L21.2554 422.869L28.0794 416.045V406.396V396.735V387.086V377.425V367.776V358.115V348.466V338.805L34.9156 331.981L41.7396 325.157L48.5635 318.333L55.3875 311.509L62.2115 304.673L69.0477 297.849L75.8716 291.025L82.6956 284.189L89.5318 277.365L96.3558 270.541L103.18 263.717L110.004 256.893L116.828 250.056L123.664 243.232L130.488 236.409L137.312 229.585L144.136 222.748V213.099L137.312 206.275L130.488 199.439L123.664 192.615L116.828 185.791L110.004 178.967L103.18 172.131L96.3558 178.967L89.5318 185.791" stroke="#2F353A" stroke-width="0.44" stroke-linecap="round" stroke-linejoin="round"/>
</g>
<g style="mix-blend-mode:screen">
<path d="M-77.9734 525.326L-71.1495 518.49L-64.3256 511.666L-57.4893 504.842L-50.6654 498.018L-43.8414 491.194L-37.0052 484.37L-30.1813 477.534L-23.3573 470.71L-16.5333 463.886L-9.70934 457.05L-2.88543 450.226L3.9508 443.402L10.7748 436.578L17.5987 429.754L24.4349 422.918L31.2589 416.094L38.0828 409.27L44.9068 402.446V392.785V383.124V373.475V363.826V354.165V344.516V334.854V325.206L51.7308 318.369V308.72V299.071V289.41V279.761V270.1V260.451L44.9068 253.615V243.966V234.305V224.656V215.007V205.346V195.697V186.036V176.387V166.726V157.077L51.7308 150.253V140.592V130.943L44.9068 137.767L38.0828 144.591" stroke="#2F353A" stroke-width="0.5" stroke-linecap="round" stroke-linejoin="round"/>
</g>
<g style="mix-blend-mode:screen">
<path d="M-81.2633 525.399L-74.4394 518.563L-67.6154 511.739L-60.7914 504.915L-53.9553 498.091L-47.1313 491.267L-40.3073 484.443L-33.4833 477.607L-26.6472 470.783L-19.8232 463.959L-12.9992 457.123L-6.16303 450.299L0.660952 443.475L7.48494 436.651L14.3088 429.827L21.1328 422.991L27.9568 416.167L34.793 409.343L41.617 402.519L48.4409 395.683L55.2771 388.859L62.1011 382.035L68.9251 375.198L75.749 368.374L82.573 361.55L89.397 354.727L96.2331 347.903L103.057 341.066L109.881 334.242L116.717 327.418L123.541 320.594L130.365 313.758L137.189 306.934H146.85H156.499H166.148H175.809H185.471L192.295 300.11L199.118 293.286L205.942 286.462L212.779 279.626L219.603 272.802L226.427 265.978L233.251 259.142L240.074 252.318L246.911 245.494L253.735 238.67L260.559 231.846L267.383 225.01L274.219 218.186L281.043 211.362L287.867 204.538L294.691 197.714L301.527 190.878H311.176H320.837H330.486H340.147L346.971 184.054L353.795 177.23L360.619 170.394L367.443 163.57L374.279 156.746L381.103 149.922L387.927 143.098L394.751 136.262L401.587 129.438L408.411 122.614L415.235 115.79V106.129V96.4798V86.8186V77.1697V67.5085V57.8596V48.1984V38.5494V28.8883V19.2394L422.059 12.4154L428.895 5.59143L435.719 -1.24476L442.543 -8.06875L449.367 -14.8927L456.203 -21.7167L463.027 -28.5529L469.851 -35.3768L476.675 -42.2008L483.512 -49.037L490.335 -55.8609L497.16 -62.6849L503.983 -69.5089H513.645H523.294H532.955H542.604H552.265H561.914H571.563H581.224H590.873H600.534H610.183L617.019 -62.6849L623.843 -55.8609L630.667 -49.037L637.491 -42.2008V-32.5518" stroke="#2F353A" stroke-width="0.84" stroke-linecap="round" stroke-linejoin="round"/>
</g>
<g style="mix-blend-mode:screen">
<path d="M-78.6588 524.641L-71.8349 517.805H-62.1859H-52.5247H-42.8759H-33.2147H-23.5657L-16.7296 510.981L-9.90557 504.157L-3.08159 497.321L3.7424 490.497L10.5785 483.673L17.4025 476.849L24.2265 470.025L31.0504 463.188L37.8744 456.364L44.7106 449.541" stroke="#2F353A" stroke-width="0.64" stroke-linecap="round" stroke-linejoin="round"/>
</g>
<g style="mix-blend-mode:screen">
<path d="M-78.4752 524.825L-71.6512 518.001L-64.8272 511.177L-57.9911 504.341L-51.1671 497.517L-44.3431 490.693L-37.507 483.857L-30.683 477.033L-23.859 470.209L-17.0351 463.385L-10.2111 456.549L-3.37488 449.725L3.44903 442.901L10.273 436.077L17.097 429.253L23.9332 422.416L30.7571 415.593V405.944V396.282" stroke="#2F353A" stroke-width="0.88" stroke-linecap="round" stroke-linejoin="round"/>
</g>
<g style="mix-blend-mode:screen">
<path d="M-78.8295 524.47L-72.0055 517.646L-65.1694 510.822L-58.3454 503.986L-51.5214 497.162L-44.6975 490.338L-37.8613 483.502L-31.0373 476.678L-24.2134 469.854L-17.3894 463.03L-10.5532 456.206L-3.72926 449.37L3.09473 442.546L9.91871 435.722L16.7426 428.898L23.5666 422.062L30.4028 415.238L37.2268 408.414L44.0507 401.578V391.929V382.28V372.619V362.97V353.308V343.66V333.998V324.349V314.688V305.039V295.378V285.729V276.068V266.419L37.2268 259.595V249.934V240.285L30.4028 247.109" stroke="#2F353A" stroke-width="0.74" stroke-linecap="round" stroke-linejoin="round"/>
</g>
<g style="mix-blend-mode:screen">
<path d="M-78.8545 524.445L-72.0183 517.621L-65.1944 510.797L-58.3704 503.961L-51.5464 497.137L-44.7224 490.313L-37.8862 483.489L-31.0623 476.665L-24.2383 469.829L-17.4144 463.005L-10.5781 456.181L-3.75415 449.345V439.696V430.035V420.386V410.737V401.076V391.427V381.766V372.117V362.456V352.807V343.146L3.06977 336.322L9.90599 329.498L16.73 322.674L23.5539 315.838L30.3779 309.014L37.2019 302.19L44.038 295.366L50.862 288.529L57.686 281.705L64.51 274.882L71.3461 268.058L78.1701 261.234L84.9941 254.397V244.748V235.087V225.438V215.777V206.128V196.467V186.818V177.169V167.508V157.859V148.198V138.549V128.888V119.239V109.578V99.9287L78.1701 93.1048L84.9941 86.2686V76.6196V66.9584V57.3095V47.6606V37.9994V28.3505V18.6893V9.02813V-0.62083V-10.2698V-19.9309V-29.5799V-39.2288V-48.89V-58.5512V-68.2001V-77.8613V-87.5102V-97.1591L78.1701 -103.995L71.3461 -110.819L64.51 -117.643L57.686 -124.467L50.862 -131.303L44.038 -138.127H34.3769H24.7279H15.0667H5.41785H-4.23111H-13.8923H-23.5534H-33.2024H-42.8636V-128.478V-118.817V-109.156L-36.0274 -102.332L-29.2034 -95.5082L-22.3795 -88.6842L-15.5432 -81.8602H-5.89428H3.7546H13.4158H23.0648H32.7259H42.3748H52.036H61.6849H71.3461H80.9951V-91.5092L74.1711 -98.3332L67.3471 -105.157L60.511 -111.993" stroke="#2F353A" stroke-width="0.44" stroke-linecap="round" stroke-linejoin="round"/>
</g>
<g style="mix-blend-mode:screen">
<path d="M-80.7125 524.836L-73.8886 518.013L-67.0523 511.189L-60.2283 504.365L-53.4044 497.541L-46.5804 490.717L-39.7565 483.88L-32.9325 477.056L-26.0963 470.233L-19.2723 463.396L-12.4484 456.572L-5.62443 449.748L1.21179 442.924L8.03571 436.088L14.8597 429.264L21.6837 422.44L28.5198 415.616L35.3438 408.792L42.1678 401.956L48.9918 395.132L55.8279 388.308L62.6519 381.472L69.4759 374.648L76.2998 367.824H85.961H95.61H105.271H114.92H124.581H134.23H143.891L150.715 374.648L157.539 381.472L164.363 388.308L171.187 395.132L178.023 401.956L184.847 408.792L191.671 415.616H201.332H210.981H220.643V405.967L213.819 399.131L206.982 392.307L200.158 385.483L193.335 378.647L186.498 371.823L179.674 364.999L172.85 358.175H163.189H153.54H143.891H134.23H124.581H114.92H105.271H95.61L102.434 364.999" stroke="#2F353A" stroke-width="0.6" stroke-linecap="round" stroke-linejoin="round"/>
</g>
<g style="mix-blend-mode:screen">
<path d="M-79.453 523.834L-72.6291 517.01L-65.8051 510.186L-58.9812 503.362L-52.1449 496.538L-45.321 489.702L-38.497 482.878L-31.6731 476.054V466.393V456.744V447.083V437.434V427.773V418.124V408.463V398.814V389.153V379.504V369.855V360.194V350.545V340.883L-24.8369 334.059L-18.0129 327.235L-11.1889 320.399L-4.36494 313.575L2.45897 306.751L9.2952 299.927H18.9442V290.278V280.617V270.968V261.307V251.646V241.997V232.348V222.687V213.038V203.377V193.728V184.067V174.418L25.7803 167.582V157.933V148.284V138.623V128.974V119.312V109.663V100.002V90.3533V80.6922V71.0432V61.3821V51.7331V42.0719V32.423V22.7618V13.1129L18.9442 6.28896L12.1202 -0.535031L5.29618 -7.35898L-1.53997 -14.1952L-8.36395 -21.0192L-15.1879 -27.8431L-22.0119 -34.6793L-28.8358 -41.5033L-35.6598 -48.3272H-45.321H-54.9821H-64.6311H-74.2922H-83.9412L-90.7652 -55.1512V-45.5023V-35.8411V-26.1922V-16.531V-6.88205V2.77911V12.4281V22.077V31.7382V41.3871V51.0483V60.6972V70.3584V80.0073V89.6685V99.3174H-100.426H-110.075V108.979V118.628" stroke="#2F353A" stroke-width="0.85" stroke-linecap="round" stroke-linejoin="round"/>
</g>
<g style="mix-blend-mode:screen">
<path d="M-78.9761 524.324L-72.1521 517.5L-65.316 510.676L-58.492 503.839L-51.668 497.015L-44.8319 490.192L-38.0079 483.368L-31.1839 476.531L-24.36 469.707L-17.536 462.883L-10.712 456.047H-1.0509H8.6103H18.2593H27.9204H37.5693L44.3933 449.223" stroke="#2F353A" stroke-width="0.93" stroke-linecap="round" stroke-linejoin="round"/>
</g>
<g style="mix-blend-mode:screen">
<path d="M-79.4045 523.895L-72.5806 517.071L-65.7443 510.247L-58.9204 503.411L-52.0964 496.587L-45.2724 489.763L-38.4363 482.926L-31.6123 476.102L-24.7883 469.278L-17.9643 462.455L-11.1282 455.631L-4.3042 448.794L2.51979 441.97L9.3437 435.146L16.1677 428.322L23.0039 421.486L29.8278 414.662L36.6518 407.838V398.177V388.528V378.879V369.218V359.557V349.908V340.247V330.598V320.949V311.288V301.639V291.978V282.329V272.668L43.488 265.844L50.312 259.02L57.1359 252.196L63.9599 245.359L70.7838 238.535L77.6078 231.712L84.444 224.888L91.268 218.051L98.0919 211.227H107.753H117.402H127.063H136.712" stroke="#2F353A" stroke-width="0.85" stroke-linecap="round" stroke-linejoin="round"/>
</g>
<g style="mix-blend-mode:screen">
<path d="M-79.9667 524.103L-73.1428 517.279L-66.3188 510.443H-56.6576L-49.8336 503.619L-43.0097 496.795L-36.1857 489.971L-29.3495 483.135L-22.5256 476.311L-15.7016 469.487L-8.87759 462.663L-2.05368 455.827L4.78255 449.003L11.6065 442.179L18.4304 435.355L25.2544 428.531L32.0907 421.695L38.9146 414.871L45.7386 408.047L52.5748 401.21L59.3987 394.386H69.0476H78.6966L85.5328 401.21L92.3567 408.047L99.1807 414.871L106.017 421.695H115.666H125.327H134.976H144.625H154.286H163.935H173.596H183.245H192.906H202.555H212.216H221.865L228.689 414.871V405.222L221.865 398.385L215.041 391.561L208.217 384.737L201.393 377.914L194.557 371.09L187.733 364.253L180.909 357.429H171.248" stroke="#2F353A" stroke-width="0.25" stroke-linecap="round" stroke-linejoin="round"/>
</g>
<g style="mix-blend-mode:screen">
<path d="M-73.3633 517.487V507.838V498.189V488.528V478.879V469.218V459.569V449.908V440.259V430.597V420.948V411.287V401.638V391.989V382.328V372.679V363.018V353.369L-66.5393 346.533L-59.7031 339.709L-52.8792 332.885L-46.0552 326.061L-39.2312 319.237L-32.4072 312.401L-25.5711 305.577L-18.7471 298.753L-11.9231 291.917L-5.09918 285.093L1.73705 278.269L8.56103 271.445V261.784V252.135V242.474V232.825V223.164V213.515V203.853V194.204V184.556V174.894V165.245L15.3849 158.409L22.2212 151.585L29.0452 144.761L35.8691 137.937L42.6931 131.101L49.517 124.277V114.628V104.967V95.3181V85.657V76.008V66.3468V56.6979V47.0367V37.3878V27.7388V18.0777V8.41651V-1.23244V-10.8814L42.6931 -17.7176L35.8691 -24.5415L29.0452 -31.3655L22.2212 -38.1895L15.3849 -45.0134L8.56103 -51.8496L1.73705 -58.6736L-5.09918 -65.4975L-11.9231 -72.3337L-18.7471 -79.1577L-25.5711 -85.9817L-32.4072 -92.8057L-39.2312 -99.6296L-46.0552 -106.466H-55.7041H-65.3653L-72.1893 -99.6296L-79.0255 -92.8057L-85.8494 -85.9817L-92.6734 -79.1577H-102.322H-111.983H-121.632H-131.294H-140.943H-150.604H-160.253H-169.914H-179.563H-189.224H-198.873L-205.697 -85.9817H-215.358H-225.007H-234.668H-244.317H-253.978H-263.627L-270.451 -92.8057L-277.287 -99.6296L-284.111 -106.466L-290.935 -113.29V-103.629V-93.9797V-84.3307V-74.6695V-65.0206" stroke="#2F353A" stroke-width="0.31" stroke-linecap="round" stroke-linejoin="round"/>
</g>
<g style="mix-blend-mode:screen">
<path d="M-73.5347 517.658L-66.7108 510.834L-59.8745 504.01L-53.0506 497.186L-46.2266 490.362L-39.4027 483.526L-32.5787 476.702L-25.7548 469.878L-18.9185 463.054L-12.0945 456.218L-5.27063 449.394L1.55335 442.57L8.38958 435.746L15.2135 428.91L22.0375 422.086L28.8615 415.262V405.613V395.952V386.303V376.642V366.993V357.332V347.683V338.022V328.373V318.724V309.063V299.401V289.752V280.091V270.442V260.793V251.132V241.483V231.822V222.173V212.512V202.863V193.202V183.553V173.892V164.243V154.582V144.933V135.272V125.623L22.0375 118.799V109.15V99.4886V89.8274V80.1784V70.5173L15.2135 63.6933H5.56461H-4.09659H-13.7577H-23.4067H-33.0679H-42.7168H-52.3657L-59.1897 70.5173L-66.0259 77.3535L-72.8498 84.1774L-79.6738 91.0014L-86.5101 97.8376L-93.334 104.662L-100.158 111.486L-106.982 118.309L-100.158 125.133L-93.334 131.97L-86.5101 138.794L-79.6738 145.618L-72.8498 152.442L-66.0259 159.278L-59.1897 166.102L-52.3657 172.926L-45.5418 179.762L-38.7178 186.586H-29.0689H-19.4077H-9.75877H-0.0975757V196.235V205.884V215.545L-6.92156 222.369L-13.7577 229.193L-20.5817 236.029H-30.2307H-39.8919H-49.5407H-59.1897H-68.8509V245.678V255.339V264.988V274.637L-62.0269 267.813V258.164V248.515V238.854V229.193V219.544V209.883V200.234L-68.8509 193.41V183.749V174.1" stroke="#2F353A" stroke-width="0.4" stroke-linecap="round" stroke-linejoin="round"/>
</g>
<g style="mix-blend-mode:screen">
<path d="M-74.1215 518.245L-67.2853 511.421L-60.4613 504.597L-53.6374 497.761L-46.8134 490.937L-39.9772 484.113L-33.1533 477.277L-26.3293 470.453L-19.5053 463.629L-12.6692 456.805L-5.84517 449.981L0.978818 443.157L7.80273 436.321L14.639 429.497L21.4629 422.673L28.2869 415.837L35.1108 409.013L41.9471 402.189L48.771 395.365L55.595 388.541L62.4189 381.705L69.2429 374.881L76.0791 368.057L82.9031 361.233L89.7271 354.396H99.3882H109.037H118.698H128.347H137.996H147.657H157.306H166.967H176.629H186.278H195.926L202.75 361.233L209.587 368.057L216.411 374.881L223.235 381.705L230.059 388.541V398.19" stroke="#2F353A" stroke-width="0.65" stroke-linecap="round" stroke-linejoin="round"/>
</g>
<g style="mix-blend-mode:screen">
<path d="M-73.7543 517.89L-66.9303 511.066L-60.1063 504.23L-53.2701 497.406L-46.4462 490.582L-39.6222 483.746L-32.7982 476.922L-25.962 470.098L-19.1381 463.274L-12.3141 456.438L-5.49015 449.614L1.33383 442.79L8.17006 435.966L14.994 429.142L21.818 422.306L28.6542 415.482L35.4781 408.658L42.3021 401.834L49.1261 394.998L55.9501 388.174L62.7862 381.35L69.6102 374.526L76.4342 367.689L83.2581 360.865L90.0943 354.041L96.9183 347.218H106.567H116.228H125.877H135.538H145.187H154.836H164.498L171.321 340.381L178.158 333.557L184.982 326.733L191.806 319.909L198.63 313.085L205.454 306.249L212.29 299.425V289.776L219.114 282.94L225.938 276.116L232.762 269.292L239.598 262.468L246.422 255.632L253.246 248.808L260.082 241.984L266.906 235.16L273.73 228.336L280.554 221.5L287.378 214.676L294.214 207.852L301.038 201.016L307.862 194.192H317.523H327.172H336.833H346.482L353.306 187.368L360.13 180.544L366.966 173.72L373.79 166.884L380.614 160.06H390.275H399.924H409.585H419.234H428.883H438.545H448.194H457.855H467.516H477.165H486.814H496.475H506.124H515.785L522.609 153.236L529.433 146.412L536.269 139.576L543.093 132.752L549.917 125.928L556.741 119.092L563.565 112.268L570.389 105.444L577.225 98.6198V88.9708V79.3096V69.6485V59.9995V50.3384V40.6894V31.0405L584.049 24.2165L590.873 17.3803L597.709 10.5564L604.533 3.73238L611.357 -3.10381L618.181 -9.92776L625.005 -16.7517L631.841 -23.5757L638.665 -30.4119L645.489 -37.2359L652.313 -44.0598L659.149 -50.8838L665.973 -57.7078L672.797 -64.5439" stroke="#2F353A" stroke-width="0.63" stroke-linecap="round" stroke-linejoin="round"/>
</g>
<g style="mix-blend-mode:screen">
<path d="M-74.3172 518.453L-67.4932 511.617L-60.6693 504.793L-53.8331 497.969L-47.0091 491.145L-40.1852 484.309L-33.349 477.485L-26.525 470.661L-19.7011 463.825L-12.8771 457.001L-6.05308 450.177L0.783072 443.353L7.60706 436.529L14.431 429.693L21.255 422.869L28.0912 416.045V406.384V396.735V387.073V377.425V367.776V358.114V348.453V338.804V329.143V319.494V309.845V300.184V290.535V280.874V271.225V261.564V251.915V242.254L34.9152 235.43L41.7391 228.606L48.5753 221.782L55.3993 214.946V205.297V195.648V185.987V176.338V166.677V157.028V147.366V137.717V128.056V118.407V108.746V99.0973V89.4483V79.7871V70.1382V60.4771L62.2232 53.6531V63.302V72.9632" stroke="#2F353A" stroke-width="0.6" stroke-linecap="round" stroke-linejoin="round"/>
</g>
<g style="mix-blend-mode:screen">
<path d="M-74.7939 518.93V509.269V499.62V489.959V480.31V470.649V461V451.339V441.69V432.028V422.38V412.718V403.069V393.408V383.759V374.11V364.449L-67.97 357.625L-61.146 350.801L-54.3098 343.965L-47.4858 337.141L-40.6619 330.317L-33.8257 323.481V313.832V304.183L-27.0017 297.347L-20.1777 290.523L-13.3538 283.699L-6.52983 276.875L0.306393 270.039L7.1303 263.215L13.9543 256.391L20.7783 249.567L27.6144 242.731L34.4384 235.907L41.2624 229.083L48.0863 222.259L54.9225 215.435L61.7465 208.599L68.5704 201.775L75.3944 194.951L82.2184 188.115L89.0546 181.291L95.8785 174.467L102.703 167.643L109.539 160.819L116.363 153.995L123.187 147.158L130.011 140.335L136.835 133.511L143.659 126.674L150.495 119.85L157.319 113.026L164.143 106.202L170.979 99.3785L177.803 92.5423V82.8934V73.2322V63.5833V53.9221L170.979 47.0982V37.4492L177.803 30.613" stroke="#2F353A" stroke-width="0.68" stroke-linecap="round" stroke-linejoin="round"/>
</g>
<g style="mix-blend-mode:screen">
<path d="M-74.7578 518.893L-67.9338 512.057L-61.0976 505.233L-54.2736 498.409L-47.4497 491.585L-40.6257 484.749L-33.7895 477.925V468.264V458.615L-26.9656 451.791L-20.1416 444.967L-13.3176 438.131L-6.49371 431.307L0.342513 424.483L7.1665 417.659L13.9904 410.823L20.8144 403.999L27.6506 397.175L34.4745 390.351L41.2985 383.527L48.1225 376.69L54.9587 369.866L61.7826 363.043L68.6066 356.206L75.4306 349.382L82.2545 342.558L89.0907 335.734V326.073V316.424V306.775L82.2545 299.939H72.6056L65.7817 306.775V316.424V326.073V335.734V345.383L72.6056 338.559V328.898V319.249V309.6L79.4295 316.424L86.2658 323.248H95.9147L102.739 330.072L95.9147 336.908L89.0907 343.732L82.2545 350.556L75.4306 357.38L68.6066 364.217" stroke="#2F353A" stroke-width="0.63" stroke-linecap="round" stroke-linejoin="round"/>
</g>
<g style="mix-blend-mode:screen">
<path d="M-74.3661 518.49L-67.5421 511.666V502.017V492.356V482.707V473.046V463.397V453.735V444.087V434.425V424.776V415.115V405.466V395.817V386.156V376.507V366.846V357.197V347.536V337.887V328.226V318.577V308.916V299.267V289.606L-74.3661 282.782V273.133V263.472V253.823V244.162V234.513V224.851V215.202V205.541V195.892V186.243V176.582V166.933V157.272L-81.19 150.448L-88.0262 143.624L-94.8502 136.788L-101.674 129.964L-108.498 123.14L-115.322 116.316V106.655V97.006V87.3448L-108.498 80.5208L-101.674 73.6969L-94.8502 66.8607V57.2117V47.5628V37.9016V28.2527V18.5915V8.94258V-0.718585V-10.3675V-20.0287V-29.6776V-39.3388V-48.9877V-58.6489V-68.2979V-77.959V-87.608L-88.0262 -94.432L-81.19 -101.256L-74.3661 -108.08L-67.5421 -114.916L-60.7059 -121.74L-53.8819 -128.564V-138.225V-147.886V-157.535V-167.184V-176.845V-186.494V-196.155V-205.804V-215.466L-47.058 -222.29L-40.234 -229.114L-33.3978 -235.937L-26.5738 -242.761L-19.7498 -249.598L-12.9259 -256.422L-6.10195 -263.246L0.734283 -270.07L7.55827 -276.906L14.3822 -283.73L21.2184 -290.554L28.0424 -297.39L34.8663 -304.214V-313.863V-323.524V-333.173V-342.834V-352.483L28.0424 -359.307L21.2184 -366.143L14.3822 -372.967L7.55827 -379.791L0.734283 -386.615L-6.10195 -393.439L-12.9259 -400.275L-19.7498 -407.099" stroke="#2F353A" stroke-width="0.96" stroke-linecap="round" stroke-linejoin="round"/>
</g>
<g style="mix-blend-mode:screen">
<path d="M-74.5129 518.636L-67.6889 511.812L-60.8527 504.988L-54.0288 498.164L-47.2048 491.328L-40.3808 484.504L-33.5446 477.68L-26.7206 470.844L-19.8967 464.02L-13.0605 457.196L-6.23652 450.372L0.587468 443.548L7.41145 436.724V427.063V417.414V407.753V398.092V388.443V378.794V369.133V359.484V349.823V340.174V330.513V320.864V311.202L14.2354 304.378L21.0594 297.555L27.8956 290.731L34.7195 283.894L41.5435 277.07L48.3797 270.246L55.2036 263.41L62.0276 256.586H71.6766L78.5127 249.762" stroke="#2F353A" stroke-width="0.62" stroke-linecap="round" stroke-linejoin="round"/>
</g>
<g style="mix-blend-mode:screen">
<path d="M-74.5612 518.686L-67.725 511.862L-60.9011 505.038L-54.0771 498.201L-47.2531 491.377L-40.417 484.553L-33.593 477.73L-26.769 470.906L-19.9451 464.069L-13.1211 457.245L-6.28486 450.421L0.539053 443.597V433.936V424.275V414.626L7.36304 407.802V398.153V388.492V378.831V369.182V359.533V349.872V340.223V330.562V320.913V311.252V301.603V291.942V282.293V272.631V262.982L0.539053 256.159V246.497" stroke="#2F353A" stroke-width="1.02" stroke-linecap="round" stroke-linejoin="round"/>
</g>
<g style="mix-blend-mode:screen">
<path d="M-74.1819 518.319L-67.3579 511.482L-60.5339 504.658L-53.71 497.835L-46.8738 491.011L-40.0498 484.187L-33.2259 477.363L-26.4019 470.526L-19.5657 463.702L-12.7418 456.879L-5.91777 450.042L0.90622 443.218L7.74237 436.394L14.5664 429.57L21.3903 422.746L28.2143 415.91L35.0382 409.086L41.8745 402.262V392.601V382.952V373.291V363.642V353.981V344.332V334.683V325.022V315.373V305.712V296.063V286.402V276.753L48.6984 269.929L55.5224 263.093L62.3464 256.269L69.1825 249.445L76.0065 242.608V232.96V223.298V213.649V204.001V194.339V184.69V175.029V165.38V155.719V146.07V136.409V126.76V117.099V107.45V97.7888V88.1399L69.1825 81.3159L76.0065 74.4797L82.8305 67.6558L89.6545 60.8318L96.4906 54.0078L103.315 47.1838L110.139 40.3476H119.8H129.449H139.11H148.759H158.408V30.6987V21.0376L151.584 14.2136L144.76 7.38963L151.584 0.565643H161.245H170.894V10.2146V19.8758L164.07 26.6997V17.0385V7.38963H154.421L161.245 14.2136" stroke="#2F353A" stroke-width="0.64" stroke-linecap="round" stroke-linejoin="round"/>
</g>
<g style="mix-blend-mode:screen">
<path d="M-74.5612 518.698L-67.7372 511.862L-60.9133 505.038L-54.0771 498.214L-47.2531 491.39L-40.4292 484.554L-33.6052 477.73L-26.769 470.906L-19.9451 464.082L-13.1211 457.258L-6.2971 450.422L0.526886 443.598L7.36304 436.774L14.187 429.95L21.011 423.113L27.8349 416.29" stroke="#2F353A" stroke-width="0.59" stroke-linecap="round" stroke-linejoin="round"/>
</g>
<g style="mix-blend-mode:screen">
<path d="M-74.1707 518.307L-67.3467 511.47L-60.5105 504.646L-53.6865 497.822L-46.8625 490.998L-40.0386 484.162L-33.2146 477.338L-26.3784 470.514L-19.5545 463.69L-12.7305 456.854L-5.90654 450.03L0.929617 443.206L7.7536 436.382L14.5776 429.546L21.4016 422.722V413.073V403.412V393.763V384.102V374.453V364.792V355.143V345.482V335.833V326.184V316.523V306.861V297.213V287.551V277.902V268.253V258.592L14.5776 251.768" stroke="#2F353A" stroke-width="0.61" stroke-linecap="round" stroke-linejoin="round"/>
</g>
<g style="mix-blend-mode:screen">
<path d="M-84.235 519.064V509.403V499.754V490.093V480.444V470.783V461.134V451.473V441.824V432.163V422.514V412.853V403.204V393.542V383.893V374.245V364.583V354.934V345.273V335.612V325.963V316.314V306.653V297.004L-77.4111 290.18L-70.5871 283.344L-63.7631 276.52L-56.9269 269.696L-50.103 262.86L-43.279 256.036L-36.4551 249.212L-29.6188 242.388H-19.9699L-13.1459 235.564L-6.30974 228.728L0.514244 221.904" stroke="#2F353A" stroke-width="1.08" stroke-linecap="round" stroke-linejoin="round"/>
</g>
<g style="mix-blend-mode:screen">
<path d="M-75.1733 519.297V509.648V499.987V490.338V480.677V471.028V461.367V451.718V442.069V432.408V422.746V413.097V403.449V393.787V384.138V374.477V364.828V355.167V345.518V335.857V326.208V316.559L-68.3371 309.723L-61.5131 302.899L-54.6892 296.075L-47.8652 289.239L-41.0413 282.415L-34.205 275.591L-27.381 268.767L-20.5571 261.943L-13.7331 255.119H-4.07195L2.75204 248.283" stroke="#2F353A" stroke-width="0.69" stroke-linecap="round" stroke-linejoin="round"/>
</g>
<g style="mix-blend-mode:screen">
<path d="M-75.0629 519.199V509.538V499.889V490.24V480.579V470.93V461.269V451.608V441.959V432.31V422.649V413V403.339V393.69V384.028L-68.239 377.204V367.555V357.894V348.245V338.584V328.935L-61.415 322.099L-54.591 315.275L-47.7671 308.451L-40.9309 301.627L-34.1069 294.803L-27.283 287.967L-20.4468 281.143L-13.6228 274.319L-6.79888 267.495L0.0251028 260.659L6.84909 253.835L13.6852 247.011L20.5092 240.175L27.3332 233.351L34.1572 226.527L40.9934 219.703L47.8173 212.879L54.6413 206.055L61.4652 199.219V189.57V179.909V170.26V160.599V150.95V141.301V131.64V121.991V112.329V102.668V93.0193V83.3704L68.3015 76.5342L75.1254 69.7102L81.9494 62.8863L88.7733 56.0623L95.6096 49.2261L102.433 42.4022L109.257 35.5782L116.081 28.7542L122.918 21.918L129.742 15.094L136.566 8.27009L143.39 1.44611L150.213 -5.37784L157.05 -12.214L163.874 -19.038L170.698 -25.862V-35.5231V-45.1721V-54.8332V-64.4822V-74.1311V-83.7923L163.874 -90.6163L157.05 -97.4525L150.213 -104.276L143.39 -111.1L136.566 -117.924L129.742 -124.748L122.918 -131.585L116.081 -138.408L109.257 -145.232L102.433 -152.056L95.6096 -158.893L88.7733 -165.717L81.9494 -172.541L75.1254 -179.364L68.3015 -186.201L61.4652 -193.025L54.6413 -199.849L47.8173 -206.673L40.9934 -213.497V-223.158V-232.807V-242.468V-252.117V-261.778V-271.427V-281.088V-290.737V-300.398L47.8173 -307.222L54.6413 -314.046L61.4652 -320.882L68.3015 -327.706L75.1254 -334.53L81.9494 -341.354" stroke="#2F353A" stroke-width="1.11" stroke-linecap="round" stroke-linejoin="round"/>
</g>
<g style="mix-blend-mode:screen">
<path d="M-75.5405 519.676V510.015V500.366V490.705V481.056V471.395V461.746V452.085V442.436V432.775V423.126V413.465V403.816V394.155V384.506V374.857V365.195V355.547V345.885V336.224V326.575V316.926V307.265L-68.7165 300.441L-61.8926 293.617L-55.0564 286.793L-48.2324 279.957L-41.4085 273.133L-34.5845 266.309L-27.7483 259.473L-20.9244 252.649L-14.1004 245.825L-7.27641 239.001L-0.452497 232.177L6.38373 225.341V215.692V206.043V196.382H16.0327V186.721V177.072V167.423L22.8688 160.587" stroke="#2F353A" stroke-width="0.37" stroke-linecap="round" stroke-linejoin="round"/>
</g>
</g>
</svg>
