<svg width="866" height="900" viewBox="0 0 866 900" fill="none" xmlns="http://www.w3.org/2000/svg">
<g opacity="0.2">
<g style="mix-blend-mode:screen">
<path d="M938.699 530.34L931.875 537.176L925.051 544L918.227 550.824L911.391 557.66L904.567 564.484L897.743 571.308L890.919 578.132L884.083 584.956L877.259 591.78L870.435 598.616L863.611 605.44L856.775 612.264H847.126H837.477H827.816H818.167H808.506H798.857H789.196H779.547H769.886H760.237H750.575H740.927H731.278H721.616H711.967H702.306L695.482 619.1L688.646 625.924H678.997H669.348H659.687H650.038H640.377H630.728H621.067H611.418H601.757H592.108H582.459H572.798H563.149H553.488H543.826L537.003 632.748L530.178 639.572L523.355 646.409L516.531 653.232L509.707 660.056L502.87 666.88L496.047 673.704L489.222 680.541L482.386 687.365L475.562 694.188L468.738 701.025L461.914 707.849L455.078 714.673L448.254 721.497L441.43 728.321L434.606 735.145L427.782 741.981L420.946 748.805L414.122 755.629V765.29V774.939V784.6V794.249L420.946 801.073L427.782 807.897L434.606 814.733L441.43 821.557L448.254 828.381L455.078 835.217L461.914 842.041L468.738 848.865L475.562 855.689L482.386 862.525L489.222 869.349L496.047 876.173L502.87 882.997L509.707 889.821L516.531 896.657L523.355 903.481L530.178 910.305L537.003 917.129L543.826 923.965H553.488H563.149H572.798H582.459H592.108H601.757H611.418H621.067H630.728H640.377H650.038H659.687H669.348L676.172 917.129L682.996 910.305L689.82 903.481L696.656 896.657L703.48 889.821V880.172V870.511V860.862V851.213" stroke="#3A2F2F" stroke-width="0.46" stroke-linecap="round" stroke-linejoin="round"/>
</g>
<g style="mix-blend-mode:screen">
<path d="M939.152 529.899L932.316 536.723H922.667H913.006H903.357H893.695H884.047H874.385H864.736H855.087H845.426H835.765H826.116H816.455H806.806H797.157H787.496H777.847H768.186H758.525L751.701 529.899L744.877 523.075L738.053 516.251L731.229 509.427L724.405 502.603L717.569 495.767L710.745 488.943L703.921 482.119L697.085 475.283L690.261 468.459L683.437 461.635L676.613 454.811L669.789 447.975H660.128H650.479H640.817H631.168H621.507H611.858H602.197H592.548H582.899H573.238L566.414 441.151L559.59 434.327L552.754 427.503L545.93 420.679L539.106 413.843L532.282 407.019L525.446 400.195L518.622 393.359L511.798 386.535L504.974 379.711L498.138 372.887L491.314 366.063L484.49 359.239L477.654 352.403L470.83 345.579L464.006 338.755L457.182 331.919H447.533H437.872H428.21H418.562H408.9L402.076 325.095L395.252 318.271L388.429 311.447L381.605 304.623L374.768 297.787L367.944 290.963L361.12 284.139L354.296 277.315L347.46 270.479L340.636 263.655L333.812 256.831L326.988 249.994L320.164 243.171L313.328 236.347H303.679H294.018H284.369H274.708H265.059H255.398H245.749H236.1H226.439H216.79H207.129H197.48H187.819H178.17H168.508H158.86H149.211L142.374 229.523L135.55 222.699L128.727 215.875L121.89 209.038L115.066 202.215L108.242 195.391L101.418 188.567L94.5945 181.73L87.7583 174.906L80.9343 168.082L74.1104 161.258L67.2864 154.422L60.4501 147.598L53.6262 140.774" stroke="#3A2F2F" stroke-width="0.37" stroke-linecap="round" stroke-linejoin="round"/>
</g>
<g style="mix-blend-mode:screen">
<path d="M938.613 530.437L931.777 537.274L924.953 544.097L918.129 550.921L911.305 557.745L904.481 564.569L897.645 571.393L890.821 578.23L883.997 585.054L877.161 591.877L870.337 598.714L863.513 605.538L856.689 612.362L849.853 619.186L843.029 626.01L836.205 632.846L829.381 639.67L822.557 646.494V656.143V665.804V675.465V685.114V694.775V704.424V714.073V723.734V733.383V743.044V752.705V762.354V772.003V781.664V791.313L829.381 798.137L836.205 804.974L843.029 798.137" stroke="#3A2F2F" stroke-width="0.49" stroke-linecap="round" stroke-linejoin="round"/>
</g>
<g style="mix-blend-mode:screen">
<path d="M938.541 530.511L931.704 537.348L924.88 544.172L918.056 550.996L911.22 557.82L904.396 564.644L897.572 571.48L890.748 578.304L883.924 585.128L877.088 591.952L870.264 598.788L863.44 605.612V615.273V624.922V634.571V644.232V653.881L856.616 660.705L849.78 667.541L842.956 674.365L836.132 681.189L829.308 688.025H819.647" stroke="#3A2F2F" stroke-width="0.79" stroke-linecap="round" stroke-linejoin="round"/>
</g>
<g style="mix-blend-mode:screen">
<path d="M938.968 530.083L932.144 536.907L925.32 543.731L918.496 550.555L911.66 557.379V567.04V576.701V586.35V596.011V605.66V615.309V624.97V634.619L904.836 641.443L898.012 648.279L891.176 655.103L884.352 661.927L877.528 668.764L870.704 675.588L863.868 682.412L857.044 689.236L850.22 696.059L843.396 702.896L836.572 709.72L829.736 716.544L822.912 723.368L816.088 730.204H806.427H796.778L789.954 723.368V713.719L796.778 706.895L803.602 700.058L810.426 693.234" stroke="#3A2F2F" stroke-width="0.49" stroke-linecap="round" stroke-linejoin="round"/>
</g>
<g style="mix-blend-mode:screen">
<path d="M938.626 530.426L931.802 537.25L924.966 544.074L918.142 550.91L911.318 557.734L904.482 564.558L897.658 571.394L890.834 578.218L884.01 585.042L877.186 591.866L870.362 598.69L863.526 605.526L856.702 612.35L849.878 619.174L843.042 625.998L836.218 632.834L829.394 639.658L822.57 646.482L815.733 653.306H806.085H796.423H786.774H777.125H767.464H757.803H748.154H738.505L731.681 646.482L724.845 653.306L718.021 660.13L711.197 666.967L704.361 673.791L697.537 680.614L690.713 687.451L683.889 694.275L677.065 701.099H667.404H657.755L664.579 694.275L671.403 687.451L678.227 680.614L685.051 673.791L691.887 666.967L698.711 660.13L705.535 653.306" stroke="#3A2F2F" stroke-width="0.95" stroke-linecap="round" stroke-linejoin="round"/>
</g>
<g style="mix-blend-mode:screen">
<path d="M938.564 530.486L931.74 537.31L924.904 544.147L918.08 550.971L911.256 557.794L904.432 564.618L897.596 571.455L890.772 578.279L883.948 585.103L877.124 591.927L870.288 598.75L863.464 605.574L856.64 612.411L849.816 619.235L842.979 626.059V635.72V645.369V655.03V664.679V674.328V683.989V693.65V703.299V712.96V722.609V732.258V741.919V751.568V761.229V770.878V780.539L849.816 787.363V797.012L842.979 803.849L836.156 810.673L829.332 817.496L822.508 824.32H812.846H803.198H793.536H783.887H774.226H764.577H754.916H745.267H735.618H725.957H716.308V814.672V805.01H725.957L732.793 811.847L739.617 818.671H749.266H758.915H768.576L775.4 811.847V802.185H785.061H794.71H804.372H814.02H823.669L830.506 809.009" stroke="#3A2F2F" stroke-width="0.35" stroke-linecap="round" stroke-linejoin="round"/>
</g>
<g style="mix-blend-mode:screen">
<path d="M939.201 529.839L932.377 536.663L925.553 543.499L918.729 550.323L911.905 557.147L905.069 563.971L898.245 570.807L891.421 577.631L884.597 584.455L877.761 591.291L870.937 598.115L864.113 604.939L857.289 611.763L850.465 618.587L843.629 625.411H833.98H824.319H814.67H805.008H795.36H785.698L778.874 632.247L772.05 639.071L765.226 645.895L758.403 652.731L751.566 659.555L744.742 666.379L737.918 673.203L731.082 680.027L724.258 686.864L717.434 693.688L710.61 700.511L703.786 707.335L696.962 714.172L690.126 720.996L683.302 727.82L676.478 734.656H666.817H657.168H647.507H637.858H628.197H618.548H608.887H599.238H589.577L582.753 727.82L575.929 720.996L569.105 714.172V704.511V694.849V685.2L562.281 678.376L555.445 671.552L562.281 664.728L569.105 657.892L575.929 651.068L582.753 644.244H592.402H602.063H611.724L618.548 651.068L625.372 657.892L632.196 664.728L639.032 671.552L645.856 678.376L652.68 685.2H662.329" stroke="#3A2F2F" stroke-width="0.37" stroke-linecap="round" stroke-linejoin="round"/>
</g>
<g style="mix-blend-mode:screen">
<path d="M939.421 529.631V539.28V548.941V558.59V568.239V577.9V587.549V597.21V606.872V616.521V626.169V635.831V645.48V655.141V664.79V674.451V684.1V693.761V703.41L932.597 710.234L925.761 717.058L918.937 723.894L912.113 730.718L905.289 737.542L898.465 744.366L891.641 751.202L884.805 758.026L877.981 764.85L871.157 771.686L864.321 778.51L857.497 785.334V794.983V804.644V814.293V823.954V833.603V843.265V852.913V862.575V872.224V881.885V891.534V901.195V910.844V920.493L850.673 927.329V936.978V946.639V956.288V965.949V975.598V985.259V994.908V1004.56V1014.22V1023.87V1033.53V1043.18V1052.84V1062.49V1072.15V1081.8V1091.45V1101.11L843.849 1107.93L837.025 1114.77L830.189 1121.59L823.365 1128.42L816.541 1135.24L809.717 1142.06L802.88 1148.9L796.056 1155.72L789.233 1162.55L782.409 1169.37V1179.03V1188.68V1198.34V1207.99V1217.65V1227.3L789.233 1234.13L796.056 1240.96H805.718H815.367H825.028H834.677H844.326H853.987H863.636L870.472 1234.13H880.121V1243.79V1253.44V1263.1" stroke="#3A2F2F" stroke-width="0.72" stroke-linecap="round" stroke-linejoin="round"/>
</g>
<g style="mix-blend-mode:screen">
<path d="M939.849 529.19L933.025 536.026L926.201 542.85L919.377 549.674L912.54 556.498L905.716 563.334L898.893 570.158L892.069 576.982V586.643V596.292V605.941V615.602V625.251V634.912V644.574V654.223V663.871V673.533L885.232 680.357L878.408 687.181L871.584 694.017L864.76 700.841L857.936 707.665L851.1 714.489L844.276 721.325L837.452 728.149L830.616 734.973L823.792 741.797L816.968 748.621L810.144 755.457L803.32 762.281H793.659H784.01H774.349H764.7H755.039H745.39L752.214 755.457L759.038 748.621L765.862 741.797L772.698 734.973L779.522 728.149L786.346 721.325" stroke="#3A2F2F" stroke-width="0.79" stroke-linecap="round" stroke-linejoin="round"/>
</g>
<g style="mix-blend-mode:screen">
<path d="M939.445 529.606H929.784H920.135H910.474H900.825H891.176L884.34 522.782L877.516 515.946L870.692 509.122L863.868 502.298L857.032 495.474L850.208 488.65L843.384 481.814L836.56 474.99L829.724 468.166L822.9 461.342L816.076 454.506V444.857V435.196V425.547H825.725H835.386L828.562 432.371L821.738 439.195" stroke="#3A2F2F" stroke-width="0.59" stroke-linecap="round" stroke-linejoin="round"/>
</g>
<g style="mix-blend-mode:screen">
<path d="M939.543 529.509L932.719 536.333L925.883 543.157L919.059 549.993L912.235 556.817L905.399 563.641L898.575 570.465L891.751 577.301L884.927 584.125L878.103 590.949L871.279 597.773L864.443 604.597L857.619 611.433L850.795 618.257L843.959 625.081L837.135 631.917L830.311 638.741H820.662H811.001H801.352H791.691H782.029H772.381H762.732H753.07H743.421H733.76H724.111L717.287 631.917L710.451 625.081H700.802" stroke="#3A2F2F" stroke-width="0.46" stroke-linecap="round" stroke-linejoin="round"/>
</g>
<g style="mix-blend-mode:screen">
<path d="M940.375 528.677L933.551 535.501L926.727 542.325L919.891 549.149L913.067 555.985L906.243 562.809L899.407 569.633L892.583 576.469L885.759 583.293L878.935 590.117L872.111 596.941L865.275 603.765L858.451 610.589L851.627 617.425L844.803 624.249L837.967 631.073L831.143 637.909L824.319 644.733L817.483 651.557H807.834H798.185H788.524H778.875H769.214H759.565H749.903H740.254H730.593H720.944H711.295H701.634L694.81 658.381L687.986 665.217L681.15 672.041L674.326 678.865L667.502 685.689L660.678 692.513L653.854 699.349L647.018 706.173V715.835V725.483L653.854 732.307L660.678 725.483L667.502 718.66L674.326 711.836L681.15 704.999L687.986 698.175L694.81 691.351H704.459H714.12L707.296 698.175L700.46 704.999L693.636 711.836L686.812 718.66L679.976 725.483L673.152 732.307L666.328 725.483L673.152 718.66H682.813V708.998" stroke="#3A2F2F" stroke-width="0.39" stroke-linecap="round" stroke-linejoin="round"/>
</g>
<g style="mix-blend-mode:screen">
<path d="M940.326 528.726L933.502 535.55L926.666 542.374L919.842 549.21L913.018 556.034L906.194 562.858L899.37 569.682L892.534 576.506L885.71 583.342L878.886 590.166L872.05 596.99L865.226 603.826L858.402 610.65L851.578 617.474L844.754 624.298L837.918 631.122L831.094 637.946V647.607L824.27 654.431V664.092V673.741L817.446 680.577L810.61 687.401L803.786 694.225L796.962 701.049L790.138 707.873L783.301 714.697L776.477 721.534L769.654 728.357L762.83 735.181L756.006 742.018L749.169 748.842L742.345 755.666L735.521 762.49L728.685 769.314L721.861 776.15L715.037 782.974L708.213 789.798V799.459V809.108V818.769V828.418V838.079V847.728V857.377V867.038V876.699V886.348V896.009V905.658V915.307V924.968V934.617V944.279L715.037 951.102L721.861 957.926L728.685 964.763L735.521 971.587L742.345 978.411L749.169 985.235L756.006 992.058V1001.72L762.83 1008.54H772.479H782.14H791.789H801.45H811.099H820.76H830.409H840.07L846.894 1001.72V992.058V982.409V972.761V963.099V953.451V943.789V934.14" stroke="#3A2F2F" stroke-width="0.64" stroke-linecap="round" stroke-linejoin="round"/>
</g>
<g style="mix-blend-mode:screen">
<path d="M940.228 528.823V538.472V548.134V557.782V567.431V577.093V586.742L947.052 593.578V603.227V612.888V622.537V632.198V641.847V651.508V661.157V670.806V680.467V690.128V699.777V709.426V719.087V728.736V738.397V748.046L940.228 754.883V764.531V774.18V783.842V793.491V803.152V812.801V822.462V832.111V841.772V851.421V861.07V870.731V880.38V890.041V899.702V909.351L947.052 916.175V925.824V935.485V945.146V954.795V964.457V974.106V983.755V993.416V1003.06V1012.73L953.876 1019.55L960.712 1026.37L967.536 1033.21V1042.86V1052.52V1062.17V1071.82V1081.48V1091.13V1100.79V1110.44V1120.1L960.712 1126.92L953.876 1133.75L947.052 1140.57L940.228 1147.4L933.404 1154.23L926.568 1161.06L919.744 1167.88L912.92 1174.72L906.096 1181.54L899.272 1188.36L892.436 1195.19L885.612 1202.02V1211.67V1221.32V1230.98V1240.63V1250.29V1259.95V1269.6V1279.25V1288.91L878.788 1295.74V1305.39V1315.05L871.964 1321.87L865.128 1328.71L858.304 1335.53L851.48 1342.36L844.656 1349.18L837.832 1356V1365.66V1375.31V1384.97V1394.62V1404.28V1413.93V1423.59V1433.24V1442.9V1452.55V1462.21V1471.86V1481.52V1491.17V1500.82V1510.48" stroke="#3A2F2F" stroke-width="0.77" stroke-linecap="round" stroke-linejoin="round"/>
</g>
<g style="mix-blend-mode:screen">
<path d="M940.044 529.007L933.22 535.831L926.396 542.655L919.572 549.479L912.736 556.315H903.087H893.426H883.777H874.116H864.467H854.806H845.157H835.496H825.847H816.186H806.537H796.888H787.227H777.578H767.916H758.268L751.431 563.139L744.607 569.963L737.783 576.787L730.959 583.623L724.135 590.447L717.299 597.271L710.475 604.095L703.651 610.919L696.827 617.755L689.991 624.579V634.24L696.827 641.064H706.476H716.137" stroke="#3A2F2F" stroke-width="0.32" stroke-linecap="round" stroke-linejoin="round"/>
</g>
<g style="mix-blend-mode:screen">
<path d="M940.277 528.774L933.453 535.598V545.247V554.908V564.557V574.218V583.867V593.529V603.177V612.839V622.488V632.149V641.798V651.459V661.108V670.757V680.418V690.067L926.629 696.903L919.793 703.727L912.969 710.551L906.145 717.387L899.309 724.211L892.485 731.035L885.661 737.859L878.837 744.683L872.013 751.507L865.189 758.343L858.353 765.167L851.529 771.991L844.705 778.827L837.868 785.651L831.045 792.475L824.221 799.299H814.559H804.91H795.262H785.6H775.951H766.29H756.641H746.98H737.331H727.67H718.021L711.197 806.123V815.784V825.433L718.021 832.257L724.845 839.093L731.669 845.917L738.505 852.754L745.329 859.578L752.153 866.402L758.977 873.226L765.813 880.05V889.711L772.637 896.535L779.461 903.359L786.285 910.195L793.121 917.019L799.945 923.843L806.769 930.667L813.593 937.503L820.417 944.327L827.253 951.151L834.077 957.975V967.624V977.285V986.946V996.595V1006.26V1015.91V1025.55V1035.22V1044.86V1054.53V1064.17V1073.84V1083.48V1093.15V1102.79V1112.44L827.253 1119.28H817.592H807.943H798.282H788.633H778.972L772.148 1112.44L765.324 1105.62L758.488 1098.8L751.664 1091.97H742.015H732.354L725.53 1098.8V1108.44V1118.11V1127.75V1137.42V1147.08V1156.73V1166.37V1176.04V1185.68L732.354 1192.52L739.19 1199.34L746.014 1206.17L752.838 1213.01L759.662 1219.83" stroke="#3A2F2F" stroke-width="0.44" stroke-linecap="round" stroke-linejoin="round"/>
</g>
<g style="mix-blend-mode:screen">
<path d="M940.277 528.774L933.441 535.598L926.617 542.434L919.793 549.258L912.969 556.082L906.133 562.906L899.309 569.73L892.485 576.567L885.661 583.39L878.824 590.214L872.001 597.051L865.177 603.875L858.353 610.699L851.516 617.523V627.184V636.833V646.482L858.353 653.318V643.657V634.008V624.359V614.698" stroke="#3A2F2F" stroke-width="0.58" stroke-linecap="round" stroke-linejoin="round"/>
</g>
<g style="mix-blend-mode:screen">
<path d="M940.008 529.043L933.172 535.867L926.348 542.703L919.524 549.527L912.7 556.351L905.864 563.175L899.04 570.012L892.216 576.836L885.392 583.659L878.568 590.483L871.732 597.307L864.908 604.144L858.084 610.968H848.422H838.774H829.112H819.463H809.802L802.978 617.792L796.154 624.628L789.33 631.452L782.494 638.276L775.67 645.1H766.009H756.36H746.711H737.05H727.401H717.74H708.091H698.43H688.781L681.957 638.276L675.133 631.452H665.472H655.823H646.162H636.513H626.852H617.203H607.541H597.892L591.068 638.276" stroke="#3A2F2F" stroke-width="0.51" stroke-linecap="round" stroke-linejoin="round"/>
</g>
<g style="mix-blend-mode:screen">
<path d="M940.375 528.677L933.539 535.501L926.715 542.337L919.891 549.161L913.055 555.985L906.231 562.821L899.407 569.645L892.583 576.469L885.759 583.293L878.923 590.117L872.099 596.953L865.275 603.777L858.451 610.601H848.79H839.141H829.48H819.831H810.17H800.521H790.859H781.211H771.549H761.9H752.239L745.415 617.437H735.766H726.105H716.456H706.795H697.146H687.485H677.836H668.187H658.526H648.877H639.216H629.567H619.906H610.257H600.596L593.772 624.261L586.948 631.085L580.124 637.909L573.287 644.733L566.464 651.569L559.64 658.393L552.816 665.217L545.979 672.041L539.155 678.877L532.331 685.701L525.508 692.525L518.671 699.349L511.847 706.186L505.023 713.01L498.199 719.833L491.363 726.657L484.539 733.481L477.715 740.318L470.891 747.142H461.23H451.581H441.92H432.271H422.61H412.961H403.3H393.651L386.827 740.318L380.003 733.481L373.167 726.657L366.343 719.833L359.519 713.01L352.683 706.186L345.859 699.349L339.035 692.525L332.211 685.701L325.375 678.877L318.551 672.041L311.727 665.217L304.903 658.393L298.079 651.569L291.242 644.733L284.419 637.909H274.77H265.108H255.46H245.798H236.149H226.488H216.839H207.178H197.529H187.868H178.219H168.57H158.909H149.26H139.599H129.95H120.289H110.64H100.979L94.1547 644.733L87.3306 651.569L80.5067 658.393L73.6706 665.217L66.8465 672.041L60.0226 678.877L53.1987 685.701V695.35" stroke="#3A2F2F" stroke-width="0.68" stroke-linecap="round" stroke-linejoin="round"/>
</g>
<g style="mix-blend-mode:screen">
<path d="M941.084 527.967L934.248 534.791H924.599H914.938H905.289H895.64H885.979L879.155 527.967H869.493H859.844H850.183H840.534H830.885H821.224H811.575H801.914H792.253H782.604H772.955H763.294H753.645H743.984H734.335H724.674H715.025H705.364H695.715L688.891 534.791L682.067 541.628L675.23 548.451H665.582H655.92H646.271H636.61H626.961H617.3H607.651H598.002H588.341H578.68H569.031H559.37L552.546 541.628L545.722 534.791L538.898 527.967H529.249" stroke="#3A2F2F" stroke-width="0.42" stroke-linecap="round" stroke-linejoin="round"/>
</g>
<g style="mix-blend-mode:screen">
<path d="M941.133 527.918L934.297 534.742V544.403V554.052V563.713V573.375V583.024V592.673V602.334V611.983V621.644V631.293V640.954V650.603V660.264V669.913V679.562V689.223V698.872V708.533V718.182V727.843V737.492V747.153V756.802V766.463V776.112V785.774V795.423V805.084V814.733V824.382V834.043V843.692V853.353V863.002V872.663V882.312L941.133 889.136L947.957 895.972V905.621V915.282V924.931V934.592V944.241V953.902V963.551V973.2V982.861L941.133 989.685L934.297 996.522L927.473 1003.35L920.649 1010.17L913.825 1016.99L906.988 1023.82L900.164 1030.65L893.341 1037.48L886.517 1044.3L879.68 1051.13L872.856 1057.96L866.032 1064.79L859.208 1071.61L852.372 1078.43L859.208 1085.27L866.032 1092.09L872.856 1098.92V1108.57V1118.23V1127.88V1137.54V1147.2V1156.85V1166.5V1176.16V1185.81V1195.47V1205.12V1214.78V1224.43V1234.09V1243.74V1253.39V1263.05L879.68 1269.87V1279.53V1289.18L872.856 1296.02V1305.67V1315.32L866.032 1322.14L859.208 1328.98L852.372 1335.8L845.548 1342.62L838.724 1349.45L831.9 1356.28L825.064 1363.11L818.24 1369.93L811.416 1376.76L804.592 1383.59L797.768 1390.42L790.932 1397.24H781.283H771.622H761.973H752.312L745.488 1390.42L738.664 1383.59L731.84 1376.76L725.016 1369.93L718.18 1363.11" stroke="#3A2F2F" stroke-width="0.42" stroke-linecap="round" stroke-linejoin="round"/>
</g>
<g style="mix-blend-mode:screen">
<path d="M940.766 528.285L933.942 535.109V544.758V554.42V564.068V573.73V583.379V593.04V602.689V612.35V621.999V631.648V641.309V650.958V660.619L927.106 667.443L920.282 674.279L913.458 681.103L906.634 687.927L899.81 694.751L892.986 701.575L886.15 708.399L879.326 715.235L872.502 722.059L865.666 728.883L858.842 735.719L852.018 742.543L845.194 735.719H835.533" stroke="#3A2F2F" stroke-width="0.63" stroke-linecap="round" stroke-linejoin="round"/>
</g>
<g style="mix-blend-mode:screen">
<path d="M941.17 527.869L934.346 534.706H924.697H915.036H905.387H895.726H886.077H876.428H866.767H857.106H847.457H837.795H828.147L821.323 527.869H811.661H802.012H792.351H782.702L775.878 521.045L769.042 514.221L762.218 507.398L755.394 500.561L748.57 493.737L741.746 486.913L734.91 480.089L728.086 473.265L721.262 466.429L714.438 459.605L707.602 452.781L700.778 445.945H691.117H681.468H671.819L664.995 452.781H655.334H645.685H636.024H626.363H616.714H607.065H597.404H587.755H578.094H568.445H558.783H549.134H539.473H529.824H520.163H510.514H500.865H491.204H481.543L474.719 445.945H465.07H455.409H445.76H436.099H426.45H416.789H407.14H397.479H387.83H378.181H368.52H358.871H349.209H339.56H329.899L323.075 439.121L316.251 432.297L309.427 425.473L302.591 418.649L295.767 411.825L288.943 404.989L282.119 398.165L275.283 391.341L268.459 384.505L261.635 377.681L254.811 370.857L247.975 364.033L241.151 357.209L234.327 350.373L227.503 343.549L220.667 336.725L213.843 329.889L207.019 323.065L200.195 316.241L193.359 309.417H183.71H174.061H164.4H154.751H145.09H135.441H125.78L118.956 302.581L112.132 295.757L105.308 288.933L98.4716 282.109H88.8226H79.1736H69.5124H59.8512H50.2023H40.5411H30.8923H21.2433H11.5821H1.93316" stroke="#3A2F2F" stroke-width="0.42" stroke-linecap="round" stroke-linejoin="round"/>
</g>
<g style="mix-blend-mode:screen">
<path d="M941.756 527.295L934.932 534.119H925.271H915.622H905.961H896.312H886.651H877.002H867.341H857.692H848.043H838.382H828.721H819.072H809.411H799.762H790.113H780.451H770.803H761.141H751.48H741.831H732.182H722.521H712.872H703.223L696.387 540.943L689.563 547.779L682.739 554.603H673.078H663.429H653.768H644.119H634.458H624.809H615.148H605.499H595.838H586.189H576.54H566.878L560.055 547.779V538.118V528.469L553.218 521.633V511.984V502.335" stroke="#3A2F2F" stroke-width="0.65" stroke-linecap="round" stroke-linejoin="round"/>
</g>
<g style="mix-blend-mode:screen">
<path d="M941.341 527.698L934.517 534.535H924.868H915.207H905.558H895.897H886.248H876.599H866.938H857.276H847.627H837.966H828.317H818.668H809.007H799.358H789.697H780.048H770.387H760.738V544.183L767.562 551.007H777.211H786.872H796.533H806.182H815.843H825.492H835.141H844.803H854.451H864.113H873.762L880.598 544.183H890.247H899.896H909.557H919.206L912.382 551.007H902.733H893.072H883.423" stroke="#3A2F2F" stroke-width="0.41" stroke-linecap="round" stroke-linejoin="round"/>
</g>
<g style="mix-blend-mode:screen">
<path d="M941.805 527.246L934.982 534.07H925.333H915.671H906.022H896.361H886.712H877.051L870.227 527.246V517.585L863.403 510.748L856.579 503.924L849.755 497.1L842.919 490.277L836.095 483.453L829.271 476.616L822.435 469.792L815.611 462.968L808.787 456.144L801.963 449.308L795.127 442.484L788.303 435.66L781.479 428.836H771.83H762.169H752.52H742.859H733.21H723.549H713.9H704.239H694.59H684.941H675.279H665.631H655.969H646.308L639.484 422L632.66 415.176V405.527V395.866V386.217V376.556V366.907V357.246V347.597V337.936V328.287V318.638V308.977V299.328V289.667V280.018L625.836 273.181L619.012 266.357L612.176 259.533L605.352 252.71L598.528 245.886L591.692 239.049L584.868 232.225L578.044 225.401L571.22 218.577L564.396 211.741H554.735H545.086H535.425H525.776H516.115L509.291 204.917L502.467 198.093L495.643 191.269L488.819 184.445V174.784L481.983 167.96H472.334H462.673V177.609V187.27V196.919V206.568V216.229V225.891V235.54V245.201V254.85L469.497 261.674L476.333 268.498L483.157 275.322L489.981 282.158L496.805 288.982L503.641 295.806L510.465 302.642L517.289 309.466L524.113 316.29L530.949 323.114L537.773 329.95L544.597 336.774L551.421 343.598L558.257 350.422L565.081 357.246H574.73H584.391H594.04H603.701L610.525 364.082L617.349 370.906L624.185 377.73L631.009 384.566L624.185 391.39L617.349 398.214" stroke="#3A2F2F" stroke-width="0.97" stroke-linecap="round" stroke-linejoin="round"/>
</g>
<g style="mix-blend-mode:screen">
<path d="M941.475 527.564L934.651 534.388V544.049V553.698V563.359V573.008V582.669V592.318V601.979V611.628V621.277L927.827 628.113L921.003 634.937L914.179 641.761L907.355 648.597L900.519 655.421L893.695 662.245L886.871 669.069V678.731V688.38V698.028V707.69V717.351V727V736.661V746.31V755.959V765.62L893.695 772.444L900.519 779.268L907.355 786.092L914.179 792.928L921.003 799.752L927.827 806.576V816.237V825.886L921.003 832.71H911.354H901.693H892.044H882.383H872.722H863.073V842.371V852.02V861.681V871.33V880.991L869.897 887.815V897.477V907.125V916.774L876.733 923.598L883.557 930.435L890.381 937.259L897.205 944.082L904.041 950.919V960.568V970.229V979.878V989.527V999.188V1008.84L910.865 1002.01L917.689 995.189L924.513 988.353L931.337 981.529L938.173 974.705L944.997 967.881L938.173 961.057L931.337 954.233L924.513 947.397L917.689 940.573V930.911V921.263V911.614V901.953V892.304H908.04H898.379H888.73H879.069" stroke="#3A2F2F" stroke-width="0.59" stroke-linecap="round" stroke-linejoin="round"/>
</g>
<g style="mix-blend-mode:screen">
<path d="M942.099 526.953L935.275 533.777H925.613H915.965H906.316H896.654H887.005H877.344H867.695H858.034H848.385" stroke="#3A2F2F" stroke-width="0.49" stroke-linecap="round" stroke-linejoin="round"/>
</g>
<g style="mix-blend-mode:screen">
<path d="M941.94 527.112L935.104 533.936H925.455H915.794H906.145H896.496H886.835H877.186H867.524H857.876H848.214H838.565H828.904H819.255L812.431 527.112V517.463V507.801V498.153V488.491V478.842V469.181" stroke="#3A2F2F" stroke-width="0.46" stroke-linecap="round" stroke-linejoin="round"/>
</g>
<g style="mix-blend-mode:screen">
<path d="M941.976 527.063L935.152 533.887H925.503H915.842H906.193H896.532H886.883H877.222H867.573H857.924L851.088 527.063V517.414V507.753H841.439H831.79H822.129H812.468L805.644 514.589L798.82 521.413H789.171L782.335 514.589L775.511 507.753L768.687 500.929L761.863 494.105L755.026 487.269L748.202 480.445L741.379 473.621L734.542 466.797L727.718 459.973L720.894 453.137L714.07 446.313L707.246 439.489H716.895H726.557H736.206H745.854H755.516H765.177L772.001 446.313L778.825 453.137L785.649 459.973L792.473 466.797L799.309 473.621L806.133 480.445V490.106V499.755L799.309 506.591L792.473 499.755L785.649 492.931L778.825 486.107L772.001 479.271L765.177 472.447L758.341 465.623L751.517 458.799L744.693 451.975V442.314V432.665H754.342H764.003H773.652H783.313" stroke="#3A2F2F" stroke-width="0.65" stroke-linecap="round" stroke-linejoin="round"/>
</g>
<g style="mix-blend-mode:screen">
<path d="M942.306 526.745L935.47 533.569H925.821H916.16H906.511H896.85H887.201H877.552H867.891H858.242H848.581H838.92H829.271H819.622H809.961H800.312H790.65H781.002H771.34H761.691H752.03H742.381H732.732H723.071H713.41H703.761H694.112H684.451H674.802H665.141L658.317 526.745L651.493 519.921H641.832H632.183H622.522H612.873H603.212H593.563H583.914H574.253H564.591H554.942H545.281H535.632H525.983L519.159 526.745L512.323 533.569L505.499 540.405L498.675 547.229L491.839 554.053L485.015 560.889L478.191 567.713L471.367 574.537L464.531 581.361L457.707 588.185L450.883 595.009L444.059 601.845L437.235 608.669L430.399 615.493H420.75H411.089H401.44H391.779H382.13H372.481H362.82H353.171H343.51H333.861H324.199H314.551H304.889H295.24H285.579H275.93L269.106 608.669L262.27 601.845L255.446 595.009L248.622 588.185L241.798 581.361L234.974 574.537L228.138 567.713L221.314 560.889L214.49 554.053L207.654 547.229L200.83 540.405L194.006 533.569L187.182 526.745L180.346 519.921L173.522 513.097L166.698 506.273L159.874 499.437L153.05 492.613V482.964V473.303V463.654V453.993V444.344V434.683V425.034V415.373V405.724V396.062V386.413V376.752V367.103V357.454V347.793L146.214 340.969L139.39 334.145" stroke="#3A2F2F" stroke-width="0.96" stroke-linecap="round" stroke-linejoin="round"/>
</g>
<g style="mix-blend-mode:screen">
<path d="M942.784 526.255L935.96 533.079H926.311H916.662H907.001H897.34H887.691H878.03H868.381H858.732H849.071H839.422H829.76H820.112L813.275 526.255L806.451 519.431L799.627 512.607L792.803 505.783L785.979 498.947L779.143 492.123L772.319 485.299L765.495 478.463L758.659 471.639L751.835 464.815L745.011 457.991L738.187 451.167V441.506V431.857H728.526H718.877H709.228H699.567H689.906H680.257H670.596H660.947H651.298H641.637H631.988L625.152 438.681H634.813H644.462H654.123H663.772H673.433H683.082H692.743H702.392" stroke="#3A2F2F" stroke-width="0.46" stroke-linecap="round" stroke-linejoin="round"/>
</g>
<g style="mix-blend-mode:screen">
<path d="M942.918 526.121L936.094 532.957H926.445H916.796H907.135H897.473H887.825H878.163L871.339 526.121L864.516 519.297L857.692 512.473L850.868 505.649L844.031 498.813L837.207 491.989L830.383 485.165L823.559 478.329L816.723 471.505L809.899 464.681L803.075 457.857L796.251 451.033L789.415 444.209V434.548V424.886V415.237V405.576L796.251 398.752H786.59" stroke="#3A2F2F" stroke-width="0.47" stroke-linecap="round" stroke-linejoin="round"/>
</g>
<g style="mix-blend-mode:screen">
<path d="M943.15 525.901H933.501H923.84H914.191H904.53H894.869H885.22H875.571H865.91H856.261H846.6H836.951H827.29H817.641H807.98H798.331H788.682L781.846 519.077L775.022 512.241L768.198 505.417L761.361 498.593L754.538 491.769L747.714 484.933L740.89 478.109L734.066 471.285L727.242 464.448L720.405 457.625L713.581 450.801L706.758 443.977H697.096H687.435H677.786H668.137H658.476H648.827H639.166H629.517H619.856H610.207H600.546H590.897H581.248L574.412 437.153L567.588 430.329L560.764 423.492L553.928 416.669L547.104 409.845L540.28 403.008L533.456 396.184L526.632 389.36L519.808 382.536L512.972 375.712L506.148 368.876L499.324 362.052L492.5 355.228L485.664 348.404L478.839 341.568L472.016 334.744L465.179 327.92L458.355 321.084L451.531 314.26V304.611V294.962V285.301V275.652V265.991V256.342V246.681V237.032V227.371V217.722V208.061V198.412V188.751V179.102V169.44L458.355 176.264V166.615" stroke="#3A2F2F" stroke-width="0.55" stroke-linecap="round" stroke-linejoin="round"/>
</g>
<g style="mix-blend-mode:screen">
<path d="M943.199 525.852L936.375 532.676H926.714H917.065H907.404H897.755H888.094H878.445H868.784H859.135H849.474H839.825H830.176H820.515H810.866H801.205H791.544H781.895H772.246H762.585H752.936H743.274L736.45 539.5L729.626 546.336L722.803 553.16V562.809V572.47V582.119" stroke="#3A2F2F" stroke-linecap="round" stroke-linejoin="round"/>
</g>
<g style="mix-blend-mode:screen">
<path d="M943.188 525.852L936.364 532.676H926.715H917.053H907.405H897.743H888.094H878.433H868.784H859.135H849.474H839.825H830.164H820.515H810.854H801.205H791.544H781.895H772.234H762.585H752.924H743.275L736.451 525.852L729.615 519.028L722.791 512.205L715.967 505.381L709.143 498.544L702.319 491.72" stroke="#3A2F2F" stroke-width="0.76" stroke-linecap="round" stroke-linejoin="round"/>
</g>
<g style="mix-blend-mode:screen">
<path d="M942.98 526.072L936.156 532.896H926.495H916.846H907.184H897.536H887.874H878.225H868.577H858.915H849.266H839.605H829.944H820.295H810.646H800.985H791.336H781.675H772.026H762.365H752.716H743.055H733.406H723.757L716.921 539.72L710.097 546.543L703.273 553.38L696.437 560.204L689.613 567.028L682.789 573.864L675.965 580.688L669.141 587.512L662.304 594.336L655.481 601.16L648.656 607.984L641.833 614.82" stroke="#3A2F2F" stroke-width="0.36" stroke-linecap="round" stroke-linejoin="round"/>
</g>
<g style="mix-blend-mode:screen">
<path d="M943.395 525.644L936.571 532.468H926.922H917.273H907.612H897.951H888.302H878.641H868.992H859.343H849.682H840.033H830.372H820.723H811.062H801.413H791.752H782.103H772.441H762.793H753.131H743.482H733.821H724.172L717.348 525.644L710.524 518.82L703.7 511.996L696.864 505.172L690.04 498.336L683.216 491.512L676.38 484.688L669.556 477.852L662.732 471.028L655.908 464.204L649.072 457.38L642.248 450.556H632.599L625.763 457.38L618.939 464.204L612.115 471.028L605.291 477.852L598.455 484.688L591.631 491.512L584.807 498.336L577.983 505.172V514.821H587.632H597.293H606.942H616.603H626.252H635.913H645.562H655.223L662.047 507.997L668.871 501.161L675.695 494.337L682.519 501.161L689.355 507.997L696.179 514.821L703.003 521.645H693.354L686.518 514.821L679.694 507.997L672.87 501.161L666.046 494.337L659.21 487.513L652.386 480.689L645.562 473.853L638.738 467.029L631.914 460.205H641.563L648.387 467.029L655.223 473.853L662.047 480.689L668.871 487.513" stroke="#3A2F2F" stroke-width="0.72" stroke-linecap="round" stroke-linejoin="round"/>
</g>
<g style="mix-blend-mode:screen">
<path d="M943.31 525.742L936.486 532.566H926.825H917.164H907.515H897.866H888.204H878.556H868.894H859.245H849.584H839.935H830.274H820.625H810.964H801.315H791.666H782.005H772.356H762.695H753.034H743.385H733.736L726.912 525.742L720.076 518.918L713.252 512.094L706.428 505.258L699.604 498.434L692.768 491.61L685.944 484.786L679.12 477.949L672.283 471.125L665.459 464.301L658.635 457.465L651.812 450.641H642.15H632.501H622.84H613.191H603.53H593.881H584.232H574.571H564.922H555.261H545.612H535.951H526.302L519.478 443.817L512.642 436.993L505.818 430.169L498.994 423.333L492.17 416.509L485.334 409.685L478.51 402.861L471.686 396.025L464.85 389.201L458.026 382.377L451.202 375.553L444.378 368.729H434.729H425.068H415.406H405.757H396.096H386.447H376.798H367.137H357.488H347.827H338.178H328.517H318.868H309.207H299.558H289.909H280.248H270.599H260.938L254.114 361.893L247.278 355.069L240.454 348.245L233.63 341.409L226.806 334.585L219.982 327.761L213.158 320.937L206.322 314.113L199.498 307.277L192.674 300.453L185.837 293.629L179.014 286.805L172.189 279.969L165.366 273.145L158.542 266.321H148.88H139.231H129.57H119.921H110.26H100.611H90.9501H81.3012H71.64H61.991H52.3298H42.6809H33.0198H23.3708H13.7219H4.06069" stroke="#3A2F2F" stroke-width="0.44" stroke-linecap="round" stroke-linejoin="round"/>
</g>
<g style="mix-blend-mode:screen">
<path d="M943.346 525.705L936.522 532.529H926.861H917.212H907.551H897.902H888.241H878.592H868.943H859.282H849.621H839.972H830.311H820.662H811.013H801.351H791.703H782.041H772.392H762.731H753.082H743.421H733.772H724.111H714.462H704.801H695.152H685.491H675.842H666.193H656.532H646.883H637.222H627.573H617.912H608.263H598.601H588.953L582.129 525.705L575.292 518.881L568.468 512.045L561.644 505.221L554.808 498.397L547.984 491.573L541.16 484.749V475.088V465.439V455.778H550.809H560.47H570.132H579.781H589.442H599.091H608.74H618.401" stroke="#3A2F2F" stroke-width="0.53" stroke-linecap="round" stroke-linejoin="round"/>
</g>
<g style="mix-blend-mode:screen">
<path d="M943.334 525.717L936.498 532.541H926.849H917.188H907.539H897.878H888.229H878.568H868.919H859.27H849.608H839.96H830.298H820.649H810.988H801.339H791.678H782.029H772.368H762.719H753.058H743.409H733.748H724.099H714.45H704.789L697.965 539.365L691.129 546.201L684.305 553.025L677.481 559.849L670.657 566.685L663.833 573.509L656.997 580.333L650.172 587.157L643.349 593.994L636.525 600.817H626.863H617.215H607.553H597.904H588.243H578.594L571.77 593.994L564.934 587.157L558.11 580.333L551.286 573.509L544.462 566.685L537.626 559.849L530.802 553.025L523.978 546.201L517.154 539.365L523.978 532.541V542.202H533.627H543.288L550.112 549.026L556.936 555.85L563.772 562.686H573.421H583.082H592.731H602.38H612.042H621.69H631.352H641H650.662H660.311H669.972" stroke="#3A2F2F" stroke-width="0.47" stroke-linecap="round" stroke-linejoin="round"/>
</g>
<g style="mix-blend-mode:screen">
<path d="M944.178 524.873V534.534V544.183V553.845V563.493V573.155V582.804V592.453V602.114V611.763V621.424V631.073V640.734V650.383V660.044V669.693V679.342V689.003V698.664V708.313V717.974V727.623V737.272V746.933V756.582V766.243V775.905V785.554L951.002 792.378V802.039V811.688V821.337V830.998V840.647V850.308V859.957V869.618V879.267V888.928V898.577V908.238V917.887V927.548V937.197V946.858V956.507V966.156L944.178 972.992L937.342 979.816L930.518 986.64L923.694 993.477L916.857 1000.3L910.033 1007.12L903.209 1013.95L896.386 1020.77L889.562 1027.6L882.725 1034.43L875.901 1041.26H866.252L859.416 1034.43L852.592 1027.6H842.943H833.282H823.633H813.972H804.323H794.674H785.013H775.352H765.703H756.042L749.218 1034.43L742.394 1041.26L735.57 1048.08L728.746 1054.92L721.922 1061.74V1071.39V1081.05V1090.7V1100.36V1110.01V1119.67V1129.32V1138.98V1148.63V1158.28V1167.94L715.086 1174.76L708.262 1181.59L701.438 1188.42L694.602 1195.25L687.778 1202.07L680.954 1208.91L674.13 1215.73L667.306 1222.56L660.47 1229.38L653.646 1236.2L646.822 1243.03L639.998 1249.86L633.162 1256.69L626.337 1263.51L619.514 1270.35H609.852H600.203H590.554H580.893H571.232H561.583H551.934H542.273" stroke="#3A2F2F" stroke-width="0.42" stroke-linecap="round" stroke-linejoin="round"/>
</g>
<g style="mix-blend-mode:screen">
<path d="M940.35 528.702V519.041L933.514 512.217L926.69 505.393L919.866 498.569L913.042 491.733L906.218 484.909L899.394 478.085L892.558 471.261L885.734 464.437L878.91 457.6L872.074 450.777L865.25 443.953L858.426 437.116L851.602 430.292L844.778 423.468L837.942 416.644L831.118 409.821V400.159V390.51V380.849V371.2V361.539V351.89V342.229V332.58V322.931V313.27V303.609V293.96V284.299V274.65" stroke="#3A2F2F" stroke-width="0.5" stroke-linecap="round" stroke-linejoin="round"/>
</g>
<g style="mix-blend-mode:screen">
<path d="M940.803 528.249V518.588V508.939V499.278V489.629V479.98V470.319V460.658V451.009V441.347V431.699V422.05V412.388V402.739V393.078V383.429V373.768V364.119V354.458V344.809V335.16V325.499V315.838L933.979 309.014L927.143 302.19L920.319 295.366L913.495 288.53L906.671 281.706L899.847 274.882L893.011 268.058L886.187 261.234L879.363 254.398L872.539 247.574L865.703 240.75L858.879 233.926L852.055 227.09L845.231 220.266L838.394 213.442V203.793L845.231 196.957V187.308V177.646V167.998V158.336L838.394 151.512H828.746H819.097V141.863V132.202" stroke="#3A2F2F" stroke-width="0.79" stroke-linecap="round" stroke-linejoin="round"/>
</g>
<g style="mix-blend-mode:screen">
<path d="M940.766 528.285V518.624V508.975V499.314V489.665V480.016V470.355L933.942 463.531L927.106 456.707L920.282 449.871L913.458 443.047L906.634 436.223L899.81 429.399L892.974 422.563L886.15 415.739L879.326 408.915L872.502 402.091L865.666 395.267L858.842 388.431L852.018 381.607L845.181 374.783L838.357 367.947L831.534 361.123L824.71 354.299L817.886 347.475L811.062 340.651L804.225 333.827V324.166V314.504V304.855V295.194V285.545V275.896V266.235V256.586V246.925V237.264V227.615V217.966V208.305V198.656V189.007V179.346V169.685V160.036V150.375V140.726L797.401 133.902L790.577 127.078L783.741 120.242L776.917 113.418L770.093 106.594L763.269 99.7574L756.445 92.9334L749.609 86.1094L742.785 79.2855L735.961 72.4615L729.125 65.6253L722.301 58.8013L715.477 51.9774L708.653 45.1534H698.992L692.168 38.3172L685.344 31.4933L678.52 24.6693L671.684 17.8331L664.86 11.0091L658.036 4.18519L651.212 -2.63879H641.551H631.902H622.241H612.592H602.943H593.282H583.621L576.797 4.18519H567.148H557.487H547.838H538.189H528.527H518.866H509.217H499.556L492.732 11.0091L485.908 17.8331L479.084 24.6693L472.26 31.4933L465.424 38.3172L458.6 45.1534V54.8024V64.4635V74.1125V83.7614V93.4226V103.084V112.733L465.424 119.557L472.26 126.393L479.084 133.217V123.556V113.907V104.246L472.26 97.4216V87.7604V78.1115V68.4625V58.8013" stroke="#3A2F2F" stroke-width="0.51" stroke-linecap="round" stroke-linejoin="round"/>
</g>
<g style="mix-blend-mode:screen">
<path d="M941.414 527.637V517.976V508.327V498.678V489.017V479.368V469.707V460.046V450.397V440.748V431.087V421.438V411.777L934.59 404.953L927.754 398.129L920.93 391.305L914.106 384.468L907.27 377.644L900.446 370.82L893.622 363.997L886.798 357.173L879.974 350.336L873.15 343.512L866.314 336.688L859.49 329.864L852.666 323.028L845.83 316.204L839.006 309.38L832.182 302.556L825.358 295.72L818.521 288.896L811.698 282.072V272.411V262.762V253.101V243.452V233.791V224.142V214.493V204.832V195.183V185.522V175.873V166.212V156.563V146.902L804.874 140.078L798.05 133.254L791.226 126.43L784.389 119.593L777.565 112.769L770.742 105.946L763.918 99.1215L757.081 92.2853L750.257 85.4614L743.433 78.6374L736.609 71.8134L729.785 64.9773L722.949 58.1533L716.125 51.3293L709.301 44.5054L702.465 37.6692L695.641 30.8452L688.817 24.0213V14.3723V4.71114V-4.93782V-14.599V-24.2479L681.993 -31.0841L675.169 -37.9081L668.333 -44.732L661.509 -51.556L654.685 -58.38L647.861 -65.2161L641.025 -72.0401V-81.6891V-91.3502V-100.999V-110.66V-120.309V-129.97V-139.619V-149.281V-158.93L634.201 -165.753L627.377 -172.59L620.541 -179.414L613.717 -186.238L606.893 -193.062L600.069 -199.898L593.245 -206.722V-216.371V-226.032V-235.681V-245.342V-254.991V-264.652V-274.301V-283.95V-293.611V-303.26V-312.921V-322.582V-332.231V-341.88V-351.541V-361.19V-370.852" stroke="#3A2F2F" stroke-width="0.36" stroke-linecap="round" stroke-linejoin="round"/>
</g>
<g style="mix-blend-mode:screen">
<path d="M941.536 527.503V517.854V508.205L934.713 501.381L927.889 494.545L921.065 487.721L914.228 480.897L907.404 474.06L900.58 467.237L893.744 460.413L886.92 453.589L880.096 446.765L873.272 439.928L866.448 433.104L859.612 426.281L852.788 419.457L845.964 412.62L839.14 405.796L832.304 398.972L825.48 392.136L818.656 385.312L811.832 378.488L804.996 371.664V362.015V352.354V342.705V333.044V323.383V313.734V304.085V294.424V284.775V275.114V265.465V255.804V246.155V236.494V226.845V217.196V207.535V197.886V188.224V178.563L798.172 171.739V162.09V152.441V142.78V133.131V123.47V113.809V104.16V94.5111V84.8499V75.201V65.5398V55.8909L791.348 49.0669L784.524 42.2307L777.7 35.4068L770.864 28.5828L764.04 21.7588L757.216 14.9226L750.38 8.09865L743.556 1.2747L736.732 -5.54928L729.908 -12.3855L723.084 -19.2094L716.248 -26.0334L709.424 -32.8574L702.6 -39.6935L695.776 -46.5175L688.94 -53.3415L682.116 -60.1655L675.292 -66.9894L668.468 -73.8256V-83.4746L661.644 -90.3108L654.808 -97.1347L647.984 -103.959L641.16 -110.783L634.324 -117.607L627.5 -124.443L620.676 -131.267L613.852 -138.091L607.015 -144.915L600.191 -151.751V-161.4V-171.061L593.368 -177.885L586.544 -184.709L579.72 -191.533L572.883 -198.357L566.059 -205.181L559.235 -212.017L552.399 -218.841L545.575 -225.665L538.751 -232.501L531.927 -239.325L525.103 -246.149L518.279 -252.973V-262.634V-272.283L511.443 -279.107L504.619 -285.943L497.795 -292.767L490.959 -299.591L484.135 -306.427L477.311 -313.251L470.487 -320.075" stroke="#3A2F2F" stroke-width="0.46" stroke-linecap="round" stroke-linejoin="round"/>
</g>
<g style="mix-blend-mode:screen">
<path d="M942.27 526.781L935.446 519.957L928.61 513.121L921.786 506.297L914.962 499.473L908.138 492.649H898.477H888.828H879.167H869.518H859.857L853.033 485.813L846.209 478.989L839.385 472.165L832.549 465.341L825.725 458.505L818.901 451.681H809.24L816.076 458.505L822.9 465.341L829.724 472.165L836.548 478.989L843.384 485.813L850.208 492.649L857.032 499.473L863.868 506.297L870.692 513.121" stroke="#3A2F2F" stroke-width="0.87" stroke-linecap="round" stroke-linejoin="round"/>
</g>
<g style="mix-blend-mode:screen">
<path d="M942.478 526.573L935.642 519.749L928.818 512.913L921.994 506.089L915.17 499.265L908.346 492.441L901.522 485.605L894.686 478.781L887.862 471.957L881.038 465.133L874.202 458.309L867.378 451.473L860.554 444.649L853.73 437.825L846.894 430.988L840.07 424.165L833.246 417.341H823.597H813.936H804.287L797.45 424.165V433.826L804.287 440.65L811.111 447.474" stroke="#3A2F2F" stroke-width="0.61" stroke-linecap="round" stroke-linejoin="round"/>
</g>
<g style="mix-blend-mode:screen">
<path d="M942.038 527.014L935.214 520.19L928.378 513.354L921.554 506.53L914.73 499.706L907.906 492.882L901.082 486.046L894.246 479.222L887.422 472.398L880.598 465.574L873.762 458.75L866.938 451.914L860.114 445.09L853.29 438.266L846.466 431.43L839.63 424.606L832.806 417.782V408.133V398.472V388.823L825.982 381.999L819.158 375.162L812.322 368.338L805.498 361.514L798.674 354.678L791.85 347.854L785.014 341.03L778.19 334.206L771.366 327.382L764.542 320.546L757.706 313.722L750.882 306.898L744.058 300.074L737.221 293.238L730.397 286.414L723.574 279.59L716.75 272.766L709.926 265.93L703.102 259.106H693.44H683.779H674.13H664.469H654.82H645.171H635.51L642.346 252.282V242.633L635.51 235.797L628.686 228.973L621.862 222.149L615.026 215.325L608.202 208.489V198.84V189.179V179.53V169.881L615.026 163.045L621.862 156.221L628.686 149.397L635.51 142.561L642.346 135.737L649.17 128.913L655.994 122.089V112.428V102.779V93.1175V83.4685H646.345H636.684H627.035H617.374H607.725H598.064H588.415L581.579 90.2925L574.755 97.1287L567.931 103.953L561.107 110.777L554.283 117.601L547.447 124.425L540.623 131.248L533.799 138.085L526.963 144.909V154.558V164.219V173.88V183.529H536.624H546.273H555.934H565.595H575.244L582.068 176.705V167.044V157.395V147.734V138.085V128.424V118.775V109.126V99.4645L575.244 106.288L568.42 113.112L561.596 119.949L554.76 126.773L547.936 133.597L541.112 140.42L534.276 147.257" stroke="#3A2F2F" stroke-width="0.6" stroke-linecap="round" stroke-linejoin="round"/>
</g>
<g style="mix-blend-mode:screen">
<path d="M942.442 526.61L935.605 519.786L928.782 512.962L921.958 506.126L915.134 499.302L908.31 492.478L901.473 485.642L894.649 478.818L887.826 471.994L880.989 465.17L874.165 458.346L867.341 451.522L860.517 444.686L853.693 437.862L846.857 431.038L840.033 424.202L833.209 417.378V407.729V398.068V388.419V378.77V369.109V359.447V349.798V340.137V330.488V320.839V311.178L826.385 304.354L819.561 297.53L812.725 290.694L805.901 283.87L799.077 277.046L792.241 270.222L785.417 263.386L778.593 256.562V246.913V237.252V227.603V217.942V208.293V198.632V188.983V179.334V169.673L771.769 162.849L764.945 156.012L758.109 149.188L751.285 142.365L744.461 135.541L737.637 128.704L730.801 121.88L723.977 115.056L717.153 108.232L710.329 101.409L703.505 94.5723L696.669 87.7484L689.845 80.9244L683.021 74.0882L676.197 67.2642L669.361 60.4403L662.537 53.6163L655.713 46.7923L648.877 39.9684V30.3072V20.646V10.9971V1.34816V-8.313V-17.962V-27.6231V-37.2721L655.713 -44.096V-53.7572L662.537 -60.5812L669.361 -67.4051L662.537 -74.2413L655.713 -81.0653L648.877 -87.8893" stroke="#3A2F2F" stroke-width="0.42" stroke-linecap="round" stroke-linejoin="round"/>
</g>
<g style="mix-blend-mode:screen">
<path d="M942.747 526.305L935.923 519.481L929.099 512.645L922.263 505.821L915.439 498.997L908.615 492.173L901.779 485.337L894.955 478.513L888.131 471.689L881.307 464.865L874.483 458.029L867.647 451.205L860.823 444.381H851.174H841.513H831.864H822.202" stroke="#3A2F2F" stroke-width="0.54" stroke-linecap="round" stroke-linejoin="round"/>
</g>
<g style="mix-blend-mode:screen">
<path d="M943.065 525.986L936.241 519.162L929.405 512.326L922.581 505.502L915.757 498.678L908.933 491.854L902.109 485.03L895.273 478.194L888.449 471.37L881.625 464.546H871.964H862.315H852.654H843.005H833.343L826.52 457.71V448.061" stroke="#3A2F2F" stroke-width="0.44" stroke-linecap="round" stroke-linejoin="round"/>
</g>
<g style="mix-blend-mode:screen">
<path d="M943.248 525.803L936.412 518.979L929.588 512.155L922.764 505.331L915.927 498.507L909.103 491.671L902.28 484.847L895.456 478.023L888.632 471.187L881.795 464.363L874.971 457.539L868.147 450.715L861.323 443.879L854.487 437.055L847.663 430.231H838.002L831.178 437.055H840.839" stroke="#3A2F2F" stroke-width="0.66" stroke-linecap="round" stroke-linejoin="round"/>
</g>
<g style="mix-blend-mode:screen">
<path d="M942.795 526.255L935.971 519.431L929.135 512.595L922.311 505.771L915.487 498.947L908.663 492.111L901.839 485.287H892.178H882.529H872.868H863.219H853.558L846.734 478.463L839.91 471.639L833.086 464.815L826.25 457.991L819.426 451.154" stroke="#3A2F2F" stroke-width="0.72" stroke-linecap="round" stroke-linejoin="round"/>
</g>
<g style="mix-blend-mode:screen">
<path d="M943.897 525.142L937.073 518.318L930.249 511.494L923.425 504.67L916.601 497.834L909.765 491.01L902.941 484.186L896.117 477.362L889.281 470.526L882.457 463.702L875.633 456.878L868.809 450.054L861.985 443.23L855.149 436.394L848.325 429.57L841.501 422.746V413.085V403.436V393.775V384.126V374.477V364.816V355.154V345.505V335.844V326.195V316.546V306.885V297.236V287.575V277.926L848.325 271.09L855.149 264.266L848.325 257.442" stroke="#3A2F2F" stroke-width="0.43" stroke-linecap="round" stroke-linejoin="round"/>
</g>
<g style="mix-blend-mode:screen">
<path d="M947.101 525.472L940.264 518.648L933.44 511.825V502.163V492.514V482.853V473.204V463.543V453.894V444.233V434.584V424.935V415.274V405.613V395.964V386.303L926.616 379.479L919.792 372.655L912.969 365.831L906.132 359.007L899.308 352.183L892.484 345.347L885.648 338.523L878.824 331.699L872 324.863L865.176 318.039L858.352 311.215V301.566V291.905V282.256V272.594V262.933L851.516 256.109L844.692 249.285L837.868 242.461L831.044 235.637L824.208 228.813L817.384 221.977L810.56 215.153L803.736 208.329L796.9 201.493L790.076 194.669L783.252 187.845L776.428 181.021L769.604 174.185L762.768 167.361H753.119H743.458L736.634 160.537L729.81 153.713L722.986 146.889L716.15 140.053L709.326 133.229L702.502 126.405L695.666 119.569L688.842 112.745L682.018 105.921L675.194 99.097L668.37 92.273L661.534 85.449L654.71 78.6128L647.886 71.7889V62.1399L641.062 55.3037L634.225 48.4798L627.401 41.6558L620.578 34.8196L613.754 27.9957L606.917 21.1717L600.093 14.3477V4.68654V-4.96238V-14.6235V-24.2725V-33.9337L606.917 -40.7576L613.754 -47.5816L620.578 -54.4055L627.401 -61.2295L634.225 -68.0657V-77.7146V-87.3758V-97.0248V-106.686" stroke="#3A2F2F" stroke-width="0.57" stroke-linecap="round" stroke-linejoin="round"/>
</g>
<g style="mix-blend-mode:screen">
<path d="M946.905 525.277L940.069 518.454L933.245 511.617L926.421 504.793L919.585 497.969L912.761 491.145L905.937 484.309L899.113 477.485L892.289 470.661L885.453 463.837L878.629 457.013L871.805 450.177L864.981 443.353L858.144 436.529L851.32 429.693L844.497 422.869L837.673 416.045V406.396V396.735V387.086V377.425V367.776V358.115V348.466V338.805L830.836 331.981L824.012 325.157L817.188 318.333L810.364 311.509L803.54 304.673L796.704 297.849L789.88 291.025L783.056 284.189L776.22 277.365L769.396 270.541L762.572 263.717L755.748 256.893L748.924 250.056L742.088 243.232L735.264 236.409L728.44 229.585L721.616 222.748V213.099L728.44 206.275L735.264 199.439L742.088 192.615L748.924 185.791L755.748 178.967L762.572 172.131L769.396 178.967L776.22 185.791" stroke="#3A2F2F" stroke-width="0.44" stroke-linecap="round" stroke-linejoin="round"/>
</g>
<g style="mix-blend-mode:screen">
<path d="M943.725 525.326L936.901 518.49L930.077 511.666L923.241 504.842L916.417 498.018L909.593 491.194L902.757 484.37L895.933 477.534L889.109 470.71L882.285 463.886L875.461 457.05L868.637 450.226L861.801 443.402L854.977 436.578L848.153 429.754L841.317 422.918L834.493 416.094L827.669 409.27L820.845 402.446V392.785V383.124V373.475V363.826V354.165V344.516V334.854V325.206L814.021 318.369V308.72V299.071V289.41V279.761V270.1V260.451L820.845 253.615V243.966V234.305V224.656V215.007V205.346V195.697V186.036V176.387V166.726V157.077L814.021 150.253V140.592V130.943L820.845 137.767L827.669 144.591" stroke="#3A2F2F" stroke-width="0.5" stroke-linecap="round" stroke-linejoin="round"/>
</g>
<g style="mix-blend-mode:screen">
<path d="M947.015 525.399L940.191 518.563L933.367 511.739L926.543 504.915L919.707 498.091L912.883 491.267L906.059 484.443L899.235 477.607L892.399 470.783L885.575 463.959L878.751 457.123L871.915 450.299L865.091 443.475L858.267 436.651L851.443 429.827L844.619 422.991L837.795 416.167L830.959 409.343L824.135 402.519L817.311 395.683L810.475 388.859L803.651 382.035L796.827 375.198L790.003 368.374L783.179 361.55L776.355 354.727L769.519 347.903L762.695 341.066L755.871 334.242L749.035 327.418L742.211 320.594L735.387 313.758L728.563 306.934H718.902H709.253H699.604H689.943H680.281L673.457 300.11L666.634 293.286L659.81 286.462L652.973 279.626L646.149 272.802L639.325 265.978L632.501 259.142L625.677 252.318L618.841 245.494L612.017 238.67L605.193 231.846L598.369 225.01L591.533 218.186L584.709 211.362L577.885 204.538L571.061 197.714L564.225 190.878H554.576H544.915H535.266H525.605L518.781 184.054L511.957 177.23L505.133 170.394L498.309 163.57L491.473 156.746L484.649 149.922L477.825 143.098L471.001 136.262L464.165 129.438L457.341 122.614L450.517 115.79V106.129V96.4798V86.8186V77.1697V67.5085V57.8596V48.1984V38.5494V28.8883V19.2394L443.693 12.4154L436.857 5.59143L430.033 -1.24476L423.209 -8.06875L416.385 -14.8927L409.549 -21.7167L402.725 -28.5529L395.901 -35.3768L389.077 -42.2008L382.24 -49.037L375.417 -55.8609L368.592 -62.6849L361.769 -69.5089H352.107H342.458H332.797H323.148H313.487H303.838H294.189H284.528H274.879H265.218H255.569L248.733 -62.6849L241.909 -55.8609L235.085 -49.037L228.261 -42.2008V-32.5518" stroke="#3A2F2F" stroke-width="0.84" stroke-linecap="round" stroke-linejoin="round"/>
</g>
<g style="mix-blend-mode:screen">
<path d="M944.411 524.641L937.587 517.805H927.938H918.277H908.628H898.967H889.318L882.482 510.981L875.658 504.157L868.834 497.321L862.01 490.497L855.173 483.673L848.349 476.849L841.525 470.025L834.702 463.188L827.878 456.364L821.041 449.541" stroke="#3A2F2F" stroke-width="0.64" stroke-linecap="round" stroke-linejoin="round"/>
</g>
<g style="mix-blend-mode:screen">
<path d="M944.227 524.825L937.403 518.001L930.579 511.177L923.743 504.341L916.919 497.517L910.095 490.693L903.259 483.857L896.435 477.033L889.611 470.209L882.787 463.385L875.963 456.549L869.127 449.725L862.303 442.901L855.479 436.077L848.655 429.253L841.819 422.416L834.995 415.593V405.944V396.282" stroke="#3A2F2F" stroke-width="0.88" stroke-linecap="round" stroke-linejoin="round"/>
</g>
<g style="mix-blend-mode:screen">
<path d="M944.582 524.47L937.758 517.646L930.921 510.822L924.097 503.986L917.273 497.162L910.45 490.338L903.613 483.502L896.789 476.678L889.965 469.854L883.141 463.03L876.305 456.206L869.481 449.37L862.657 442.546L855.833 435.722L849.009 428.898L842.185 422.062L835.349 415.238L828.525 408.414L821.701 401.578V391.929V382.28V372.619V362.97V353.308V343.66V333.998V324.349V314.688V305.039V295.378V285.729V276.068V266.419L828.525 259.595V249.934V240.285L835.349 247.109" stroke="#3A2F2F" stroke-width="0.74" stroke-linecap="round" stroke-linejoin="round"/>
</g>
<g style="mix-blend-mode:screen">
<path d="M944.606 524.445L937.77 517.621L930.946 510.797L924.122 503.961L917.298 497.137L910.474 490.313L903.638 483.489L896.814 476.665L889.99 469.829L883.166 463.005L876.33 456.181L869.506 449.345V439.696V430.035V420.386V410.737V401.076V391.427V381.766V372.117V362.456V352.807V343.146L862.682 336.322L855.846 329.498L849.022 322.674L842.198 315.838L835.374 309.014L828.55 302.19L821.714 295.366L814.89 288.529L808.066 281.705L801.242 274.882L794.406 268.058L787.582 261.234L780.758 254.397V244.748V235.087V225.438V215.777V206.128V196.467V186.818V177.169V167.508V157.859V148.198V138.549V128.888V119.239V109.578V99.9287L787.582 93.1048L780.758 86.2686V76.6196V66.9584V57.3095V47.6606V37.9994V28.3505V18.6893V9.02813V-0.62083V-10.2698V-19.9309V-29.5799V-39.2288V-48.89V-58.5512V-68.2001V-77.8613V-87.5102V-97.1591L787.582 -103.995L794.406 -110.819L801.242 -117.643L808.066 -124.467L814.89 -131.303L821.714 -138.127H831.375H841.024H850.685H860.334H869.983H879.644H889.305H898.954H908.616V-128.478V-118.817V-109.156L901.779 -102.332L894.955 -95.5082L888.131 -88.6842L881.295 -81.8602H871.646H861.997H852.336H842.687H833.026H823.377H813.716H804.067H794.406H784.757V-91.5092L791.581 -98.3332L798.405 -105.157L805.241 -111.993" stroke="#3A2F2F" stroke-width="0.44" stroke-linecap="round" stroke-linejoin="round"/>
</g>
<g style="mix-blend-mode:screen">
<path d="M946.464 524.836L939.64 518.013L932.804 511.189L925.98 504.365L919.156 497.541L912.332 490.717L905.508 483.88L898.684 477.056L891.848 470.233L885.024 463.396L878.2 456.572L871.376 449.748L864.54 442.924L857.716 436.088L850.892 429.264L844.068 422.44L837.232 415.616L830.408 408.792L823.584 401.956L816.76 395.132L809.924 388.308L803.1 381.472L796.276 374.648L789.452 367.824H779.791H770.142H760.481H750.832H741.171H731.522H721.861L715.037 374.648L708.213 381.472L701.389 388.308L694.565 395.132L687.729 401.956L680.905 408.792L674.081 415.616H664.419H654.77H645.109V405.967L651.933 399.131L658.769 392.307L665.593 385.483L672.417 378.647L679.254 371.823L686.078 364.999L692.902 358.175H702.563H712.212H721.861H731.522H741.171H750.832H760.481H770.142L763.318 364.999" stroke="#3A2F2F" stroke-width="0.6" stroke-linecap="round" stroke-linejoin="round"/>
</g>
<g style="mix-blend-mode:screen">
<path d="M945.205 523.834L938.381 517.01L931.557 510.186L924.733 503.362L917.897 496.538L911.073 489.702L904.249 482.878L897.425 476.054V466.393V456.744V447.083V437.434V427.773V418.124V408.463V398.814V389.153V379.504V369.855V360.194V350.545V340.883L890.589 334.059L883.765 327.235L876.941 320.399L870.117 313.575L863.293 306.751L856.457 299.927H846.808V290.278V280.617V270.968V261.307V251.646V241.997V232.348V222.687V213.038V203.377V193.728V184.067V174.418L839.972 167.582V157.933V148.284V138.623V128.974V119.312V109.663V100.002V90.3533V80.6922V71.0432V61.3821V51.7331V42.0719V32.423V22.7618V13.1129L846.808 6.28896L853.632 -0.535031L860.456 -7.35898L867.292 -14.1952L874.116 -21.0192L880.94 -27.8431L887.764 -34.6793L894.588 -41.5033L901.412 -48.3272H911.073H920.734H930.383H940.044H949.693L956.517 -55.1512V-45.5023V-35.8411V-26.1922V-16.531V-6.88205V2.77911V12.4281V22.077V31.7382V41.3871V51.0483V60.6972V70.3584V80.0073V89.6685V99.3174H966.178H975.827V108.979V118.628" stroke="#3A2F2F" stroke-width="0.85" stroke-linecap="round" stroke-linejoin="round"/>
</g>
<g style="mix-blend-mode:screen">
<path d="M944.728 524.324L937.904 517.5L931.068 510.676L924.244 503.839L917.42 497.015L910.584 490.192L903.76 483.368L896.936 476.531L890.112 469.707L883.288 462.883L876.464 456.047H866.803H857.142H847.493H837.832H828.183L821.359 449.223" stroke="#3A2F2F" stroke-width="0.93" stroke-linecap="round" stroke-linejoin="round"/>
</g>
<g style="mix-blend-mode:screen">
<path d="M945.156 523.895L938.333 517.071L931.496 510.247L924.672 503.411L917.848 496.587L911.024 489.763L904.188 482.926L897.364 476.102L890.54 469.278L883.716 462.455L876.88 455.631L870.056 448.794L863.232 441.97L856.408 435.146L849.584 428.322L842.748 421.486L835.924 414.662L829.1 407.838V398.177V388.528V378.879V369.218V359.557V349.908V340.247V330.598V320.949V311.288V301.639V291.978V282.329V272.668L822.264 265.844L815.44 259.02L808.616 252.196L801.792 245.359L794.968 238.535L788.144 231.712L781.308 224.888L774.484 218.051L767.66 211.227H757.999H748.35H738.689H729.04" stroke="#3A2F2F" stroke-width="0.85" stroke-linecap="round" stroke-linejoin="round"/>
</g>
<g style="mix-blend-mode:screen">
<path d="M945.719 524.103L938.895 517.279L932.071 510.443H922.41L915.586 503.619L908.762 496.795L901.938 489.971L895.101 483.135L888.278 476.311L881.454 469.487L874.63 462.663L867.806 455.827L860.969 449.003L854.145 442.179L847.322 435.355L840.498 428.531L833.661 421.695L826.837 414.871L820.013 408.047L813.177 401.21L806.353 394.386H796.704H787.055L780.219 401.21L773.395 408.047L766.571 414.871L759.735 421.695H750.086H740.425H730.776H721.127H711.466H701.817H692.156H682.507H672.846H663.197H653.536H643.887L637.063 414.871V405.222L643.887 398.385L650.711 391.561L657.535 384.737L664.358 377.914L671.195 371.09L678.019 364.253L684.843 357.429H694.504" stroke="#3A2F2F" stroke-width="0.25" stroke-linecap="round" stroke-linejoin="round"/>
</g>
<g style="mix-blend-mode:screen">
<path d="M939.115 517.487V507.838V498.189V488.528V478.879V469.218V459.569V449.908V440.259V430.597V420.948V411.287V401.638V391.989V382.328V372.679V363.018V353.369L932.291 346.533L925.455 339.709L918.631 332.885L911.807 326.061L904.983 319.237L898.159 312.401L891.323 305.577L884.499 298.753L877.675 291.917L870.851 285.093L864.015 278.269L857.191 271.445V261.784V252.135V242.474V232.825V223.164V213.515V203.853V194.204V184.556V174.894V165.245L850.367 158.409L843.531 151.585L836.707 144.761L829.883 137.937L823.059 131.101L816.235 124.277V114.628V104.967V95.3181V85.657V76.008V66.3468V56.6979V47.0367V37.3878V27.7388V18.0777V8.41651V-1.23244V-10.8814L823.059 -17.7176L829.883 -24.5415L836.707 -31.3655L843.531 -38.1895L850.367 -45.0134L857.191 -51.8496L864.015 -58.6736L870.851 -65.4975L877.675 -72.3337L884.499 -79.1577L891.323 -85.9817L898.159 -92.8057L904.983 -99.6296L911.807 -106.466H921.456H931.117L937.941 -99.6296L944.777 -92.8057L951.601 -85.9817L958.425 -79.1577H968.074H977.735H987.384H997.046H1006.69H1016.36H1026H1035.67H1045.31H1054.98H1064.62L1071.45 -85.9817H1081.11H1090.76H1100.42H1110.07H1119.73H1129.38L1136.2 -92.8057L1143.04 -99.6296L1149.86 -106.466L1156.69 -113.29V-103.629V-93.9797V-84.3307V-74.6695V-65.0206" stroke="#3A2F2F" stroke-width="0.31" stroke-linecap="round" stroke-linejoin="round"/>
</g>
<g style="mix-blend-mode:screen">
<path d="M939.287 517.658L932.463 510.834L925.626 504.01L918.803 497.186L911.979 490.362L905.155 483.526L898.331 476.702L891.507 469.878L884.67 463.054L877.846 456.218L871.023 449.394L864.199 442.57L857.362 435.746L850.538 428.91L843.714 422.086L836.89 415.262V405.613V395.952V386.303V376.642V366.993V357.332V347.683V338.022V328.373V318.724V309.063V299.401V289.752V280.091V270.442V260.793V251.132V241.483V231.822V222.173V212.512V202.863V193.202V183.553V173.892V164.243V154.582V144.933V135.272V125.623L843.714 118.799V109.15V99.4886V89.8274V80.1784V70.5173L850.538 63.6933H860.187H869.849H879.51H889.159H898.82H908.469H918.118L924.942 70.5173L931.778 77.3535L938.602 84.1774L945.426 91.0014L952.262 97.8376L959.086 104.662L965.91 111.486L972.734 118.309L965.91 125.133L959.086 131.97L952.262 138.794L945.426 145.618L938.602 152.442L931.778 159.278L924.942 166.102L918.118 172.926L911.294 179.762L904.47 186.586H894.821H885.16H875.511H865.85V196.235V205.884V215.545L872.674 222.369L879.51 229.193L886.334 236.029H895.983H905.644H915.293H924.942H934.603V245.678V255.339V264.988V274.637L927.779 267.813V258.164V248.515V238.854V229.193V219.544V209.883V200.234L934.603 193.41V183.749V174.1" stroke="#3A2F2F" stroke-width="0.4" stroke-linecap="round" stroke-linejoin="round"/>
</g>
<g style="mix-blend-mode:screen">
<path d="M939.874 518.245L933.037 511.421L926.213 504.597L919.389 497.761L912.565 490.937L905.729 484.113L898.905 477.277L892.081 470.453L885.257 463.629L878.421 456.805L871.597 449.981L864.773 443.157L857.949 436.321L851.113 429.497L844.289 422.673L837.465 415.837L830.641 409.013L823.805 402.189L816.981 395.365L810.157 388.541L803.333 381.705L796.509 374.881L789.673 368.057L782.849 361.233L776.025 354.396H766.364H756.715H747.054H737.405H727.756H718.095H708.446H698.785H689.123H679.474H669.826L663.002 361.233L656.165 368.057L649.341 374.881L642.517 381.705L635.693 388.541V398.19" stroke="#3A2F2F" stroke-width="0.65" stroke-linecap="round" stroke-linejoin="round"/>
</g>
<g style="mix-blend-mode:screen">
<path d="M939.506 517.89L932.682 511.066L925.858 504.23L919.022 497.406L912.198 490.582L905.374 483.746L898.55 476.922L891.714 470.098L884.89 463.274L878.066 456.438L871.242 449.614L864.418 442.79L857.582 435.966L850.758 429.142L843.934 422.306L837.098 415.482L830.274 408.658L823.45 401.834L816.626 394.998L809.802 388.174L802.966 381.35L796.142 374.526L789.318 367.689L782.494 360.865L775.658 354.041L768.834 347.218H759.185H749.524H739.875H730.213H720.565H710.916H701.254L694.43 340.381L687.594 333.557L680.77 326.733L673.946 319.909L667.122 313.085L660.298 306.249L653.462 299.425V289.776L646.638 282.94L639.814 276.116L632.99 269.292L626.154 262.468L619.33 255.632L612.506 248.808L605.67 241.984L598.846 235.16L592.022 228.336L585.198 221.5L578.374 214.676L571.538 207.852L564.714 201.016L557.89 194.192H548.229H538.58H528.919H519.27L512.446 187.368L505.622 180.544L498.786 173.72L491.962 166.884L485.138 160.06H475.477H465.828H456.167H446.518H436.869H427.207H417.558H407.897H398.236H388.587H378.938H369.277H359.628H349.967L343.143 153.236L336.319 146.412L329.483 139.576L322.659 132.752L315.835 125.928L309.011 119.092L302.187 112.268L295.363 105.444L288.527 98.6198V88.9708V79.3096V69.6485V59.9995V50.3384V40.6894V31.0405L281.703 24.2165L274.879 17.3803L268.043 10.5564L261.219 3.73238L254.395 -3.10381L247.571 -9.92776L240.747 -16.7517L233.911 -23.5757L227.087 -30.4119L220.263 -37.2359L213.439 -44.0598L206.603 -50.8838L199.779 -57.7078L192.955 -64.5439" stroke="#3A2F2F" stroke-width="0.63" stroke-linecap="round" stroke-linejoin="round"/>
</g>
<g style="mix-blend-mode:screen">
<path d="M940.069 518.453L933.245 511.617L926.421 504.793L919.585 497.969L912.761 491.145L905.937 484.309L899.101 477.485L892.277 470.661L885.453 463.825L878.629 457.001L871.805 450.177L864.969 443.353L858.145 436.529L851.321 429.693L844.497 422.869L837.661 416.045V406.384V396.735V387.073V377.425V367.776V358.114V348.453V338.804V329.143V319.494V309.845V300.184V290.535V280.874V271.225V261.564V251.915V242.254L830.837 235.43L824.013 228.606L817.177 221.782L810.353 214.946V205.297V195.648V185.987V176.338V166.677V157.028V147.366V137.717V128.056V118.407V108.746V99.0973V89.4483V79.7871V70.1382V60.4771L803.529 53.6531V63.302V72.9632" stroke="#3A2F2F" stroke-width="0.6" stroke-linecap="round" stroke-linejoin="round"/>
</g>
<g style="mix-blend-mode:screen">
<path d="M940.546 518.93V509.269V499.62V489.959V480.31V470.649V461V451.339V441.69V432.028V422.38V412.718V403.069V393.408V383.759V374.11V364.449L933.722 357.625L926.898 350.801L920.062 343.965L913.238 337.141L906.414 330.317L899.578 323.481V313.832V304.183L892.754 297.347L885.93 290.523L879.106 283.699L872.282 276.875L865.446 270.039L858.622 263.215L851.798 256.391L844.974 249.567L838.138 242.731L831.314 235.907L824.49 229.083L817.666 222.259L810.829 215.435L804.005 208.599L797.182 201.775L790.358 194.951L783.534 188.115L776.697 181.291L769.873 174.467L763.049 167.643L756.213 160.819L749.389 153.995L742.565 147.158L735.741 140.335L728.917 133.511L722.093 126.674L715.257 119.85L708.433 113.026L701.609 106.202L694.773 99.3785L687.949 92.5423V82.8934V73.2322V63.5833V53.9221L694.773 47.0982V37.4492L687.949 30.613" stroke="#3A2F2F" stroke-width="0.68" stroke-linecap="round" stroke-linejoin="round"/>
</g>
<g style="mix-blend-mode:screen">
<path d="M940.51 518.893L933.686 512.057L926.85 505.233L920.026 498.409L913.202 491.585L906.378 484.749L899.542 477.925V468.264V458.615L892.718 451.791L885.894 444.967L879.07 438.131L872.246 431.307L865.41 424.483L858.586 417.659L851.762 410.823L844.938 403.999L838.101 397.175L831.277 390.351L824.453 383.527L817.63 376.69L810.793 369.866L803.969 363.043L797.145 356.206L790.321 349.382L783.497 342.558L776.661 335.734V326.073V316.424V306.775L783.497 299.939H793.146L799.97 306.775V316.424V326.073V335.734V345.383L793.146 338.559V328.898V319.249V309.6L786.322 316.424L779.486 323.248H769.837L763.013 330.072L769.837 336.908L776.661 343.732L783.497 350.556L790.321 357.38L797.145 364.217" stroke="#3A2F2F" stroke-width="0.63" stroke-linecap="round" stroke-linejoin="round"/>
</g>
<g style="mix-blend-mode:screen">
<path d="M940.118 518.49L933.294 511.666V502.017V492.356V482.707V473.046V463.397V453.735V444.087V434.425V424.776V415.115V405.466V395.817V386.156V376.507V366.846V357.197V347.536V337.887V328.226V318.577V308.916V299.267V289.606L940.118 282.782V273.133V263.472V253.823V244.162V234.513V224.851V215.202V205.541V195.892V186.243V176.582V166.933V157.272L946.942 150.448L953.778 143.624L960.602 136.788L967.426 129.964L974.25 123.14L981.074 116.316V106.655V97.006V87.3448L974.25 80.5208L967.426 73.6969L960.602 66.8607V57.2117V47.5628V37.9016V28.2527V18.5915V8.94258V-0.718585V-10.3675V-20.0287V-29.6776V-39.3388V-48.9877V-58.6489V-68.2979V-77.959V-87.608L953.778 -94.432L946.942 -101.256L940.118 -108.08L933.294 -114.916L926.458 -121.74L919.634 -128.564V-138.225V-147.886V-157.535V-167.184V-176.845V-186.494V-196.155V-205.804V-215.466L912.81 -222.29L905.986 -229.114L899.15 -235.937L892.326 -242.761L885.502 -249.598L878.678 -256.422L871.854 -263.246L865.018 -270.07L858.194 -276.906L851.37 -283.73L844.533 -290.554L837.709 -297.39L830.886 -304.214V-313.863V-323.524V-333.173V-342.834V-352.483L837.709 -359.307L844.533 -366.143L851.37 -372.967L858.194 -379.791L865.018 -386.615L871.854 -393.439L878.678 -400.275L885.502 -407.099" stroke="#3A2F2F" stroke-width="0.96" stroke-linecap="round" stroke-linejoin="round"/>
</g>
<g style="mix-blend-mode:screen">
<path d="M940.265 518.636L933.441 511.812L926.605 504.988L919.781 498.164L912.957 491.328L906.133 484.504L899.297 477.68L892.473 470.844L885.649 464.02L878.813 457.196L871.989 450.372L865.165 443.548L858.341 436.724V427.063V417.414V407.753V398.092V388.443V378.794V369.133V359.484V349.823V340.174V330.513V320.864V311.202L851.517 304.378L844.693 297.555L837.856 290.731L831.033 283.894L824.209 277.07L817.372 270.246L810.548 263.41L803.724 256.586H794.075L787.239 249.762" stroke="#3A2F2F" stroke-width="0.62" stroke-linecap="round" stroke-linejoin="round"/>
</g>
<g style="mix-blend-mode:screen">
<path d="M940.313 518.686L933.477 511.862L926.653 505.038L919.829 498.201L913.005 491.377L906.169 484.553L899.345 477.73L892.521 470.906L885.697 464.069L878.873 457.245L872.037 450.421L865.213 443.597V433.936V424.275V414.626L858.389 407.802V398.153V388.492V378.831V369.182V359.533V349.872V340.223V330.562V320.913V311.252V301.603V291.942V282.293V272.631V262.982L865.213 256.159V246.497" stroke="#3A2F2F" stroke-width="1.02" stroke-linecap="round" stroke-linejoin="round"/>
</g>
<g style="mix-blend-mode:screen">
<path d="M939.934 518.319L933.11 511.482L926.286 504.658L919.462 497.835L912.626 491.011L905.802 484.187L898.978 477.363L892.154 470.526L885.318 463.702L878.494 456.879L871.67 450.042L864.846 443.218L858.01 436.394L851.186 429.57L844.362 422.746L837.538 415.91L830.714 409.086L823.877 402.262V392.601V382.952V373.291V363.642V353.981V344.332V334.683V325.022V315.373V305.712V296.063V286.402V276.753L817.054 269.929L810.23 263.093L803.406 256.269L796.569 249.445L789.745 242.608V232.96V223.298V213.649V204.001V194.339V184.69V175.029V165.38V155.719V146.07V136.409V126.76V117.099V107.45V97.7888V88.1399L796.569 81.3159L789.745 74.4797L782.921 67.6558L776.097 60.8318L769.261 54.0078L762.437 47.1838L755.613 40.3476H745.952H736.303H726.642H716.993H707.344V30.6987V21.0376L714.168 14.2136L720.992 7.38963L714.168 0.565643H704.507H694.858V10.2146V19.8758L701.682 26.6997V17.0385V7.38963H711.331L704.507 14.2136" stroke="#3A2F2F" stroke-width="0.64" stroke-linecap="round" stroke-linejoin="round"/>
</g>
<g style="mix-blend-mode:screen">
<path d="M940.313 518.698L933.489 511.862L926.665 505.038L919.829 498.214L913.005 491.39L906.181 484.554L899.357 477.73L892.521 470.906L885.697 464.082L878.873 457.258L872.049 450.422L865.225 443.598L858.389 436.774L851.565 429.95L844.741 423.113L837.917 416.29" stroke="#3A2F2F" stroke-width="0.59" stroke-linecap="round" stroke-linejoin="round"/>
</g>
<g style="mix-blend-mode:screen">
<path d="M939.923 518.307L933.099 511.47L926.262 504.646L919.438 497.822L912.614 490.998L905.791 484.162L898.967 477.338L892.13 470.514L885.306 463.69L878.482 456.854L871.658 450.03L864.822 443.206L857.998 436.382L851.174 429.546L844.35 422.722V413.073V403.412V393.763V384.102V374.453V364.792V355.143V345.482V335.833V326.184V316.523V306.861V297.213V287.551V277.902V268.253V258.592L851.174 251.768" stroke="#3A2F2F" stroke-width="0.61" stroke-linecap="round" stroke-linejoin="round"/>
</g>
<g style="mix-blend-mode:screen">
<path d="M949.987 519.064V509.403V499.754V490.093V480.444V470.783V461.134V451.473V441.824V432.163V422.514V412.853V403.204V393.542V383.893V374.245V364.583V354.934V345.273V335.612V325.963V316.314V306.653V297.004L943.163 290.18L936.339 283.344L929.515 276.52L922.679 269.696L915.855 262.86L909.031 256.036L902.207 249.212L895.371 242.388H885.722L878.898 235.564L872.062 228.728L865.238 221.904" stroke="#3A2F2F" stroke-width="1.08" stroke-linecap="round" stroke-linejoin="round"/>
</g>
<g style="mix-blend-mode:screen">
<path d="M940.925 519.297V509.648V499.987V490.338V480.677V471.028V461.367V451.718V442.069V432.408V422.746V413.097V403.449V393.787V384.138V374.477V364.828V355.167V345.518V335.857V326.208V316.559L934.089 309.723L927.265 302.899L920.441 296.075L913.617 289.239L906.793 282.415L899.957 275.591L893.133 268.767L886.309 261.943L879.485 255.119H869.824L863 248.283" stroke="#3A2F2F" stroke-width="0.69" stroke-linecap="round" stroke-linejoin="round"/>
</g>
<g style="mix-blend-mode:screen">
<path d="M940.815 519.199V509.538V499.889V490.24V480.579V470.93V461.269V451.608V441.959V432.31V422.649V413V403.339V393.69V384.028L933.991 377.204V367.555V357.894V348.245V338.584V328.935L927.167 322.099L920.343 315.275L913.519 308.451L906.683 301.627L899.859 294.803L893.035 287.967L886.199 281.143L879.375 274.319L872.551 267.495L865.727 260.659L858.903 253.835L852.067 247.011L845.243 240.175L838.419 233.351L831.595 226.527L824.759 219.703L817.935 212.879L811.111 206.055L804.287 199.219V189.57V179.909V170.26V160.599V150.95V141.301V131.64V121.991V112.329V102.668V93.0193V83.3704L797.451 76.5342L790.627 69.7102L783.803 62.8863L776.979 56.0623L770.142 49.2261L763.319 42.4022L756.495 35.5782L749.671 28.7542L742.834 21.918L736.01 15.094L729.186 8.27009L722.362 1.44611L715.539 -5.37784L708.702 -12.214L701.878 -19.038L695.054 -25.862V-35.5231V-45.1721V-54.8332V-64.4822V-74.1311V-83.7923L701.878 -90.6163L708.702 -97.4525L715.539 -104.276L722.362 -111.1L729.186 -117.924L736.01 -124.748L742.834 -131.585L749.671 -138.408L756.495 -145.232L763.319 -152.056L770.142 -158.893L776.979 -165.717L783.803 -172.541L790.627 -179.364L797.451 -186.201L804.287 -193.025L811.111 -199.849L817.935 -206.673L824.759 -213.497V-223.158V-232.807V-242.468V-252.117V-261.778V-271.427V-281.088V-290.737V-300.398L817.935 -307.222L811.111 -314.046L804.287 -320.882L797.451 -327.706L790.627 -334.53L783.803 -341.354" stroke="#3A2F2F" stroke-width="1.11" stroke-linecap="round" stroke-linejoin="round"/>
</g>
<g style="mix-blend-mode:screen">
<path d="M941.292 519.676V510.015V500.366V490.705V481.056V471.395V461.746V452.085V442.436V432.775V423.126V413.465V403.816V394.155V384.506V374.857V365.195V355.547V345.885V336.224V326.575V316.926V307.265L934.468 300.441L927.645 293.617L920.808 286.793L913.984 279.957L907.16 273.133L900.336 266.309L893.5 259.473L886.676 252.649L879.852 245.825L873.028 239.001L866.204 232.177L859.368 225.341V215.692V206.043V196.382H849.719V186.721V177.072V167.423L842.883 160.587" stroke="#3A2F2F" stroke-width="0.37" stroke-linecap="round" stroke-linejoin="round"/>
</g>
</g>
</svg>
