<svg width="528" height="518" viewBox="0 0 528 518" fill="none" xmlns="http://www.w3.org/2000/svg">
<g opacity="0.07" clip-path="url(#clip0_8_1121)">
<path d="M263.994 351.509C312.426 351.509 351.688 312.266 351.688 263.859C351.688 215.451 312.426 176.209 263.994 176.209C215.561 176.209 176.299 215.451 176.299 263.859C176.299 312.266 215.561 351.509 263.994 351.509Z" stroke="url(#paint0_linear_8_1121)" stroke-width="1.48" stroke-miterlimit="10"/>
<path d="M366.07 365.886C422.447 309.538 422.447 218.18 366.07 161.832C309.693 105.483 218.288 105.484 161.912 161.832C105.535 218.18 105.535 309.538 161.912 365.886C218.288 422.234 309.693 422.234 366.07 365.886Z" stroke="url(#paint1_linear_8_1121)" stroke-width="4.15" stroke-miterlimit="10"/>
<path d="M405.443 405.239C483.565 327.157 483.565 200.561 405.443 122.479C327.321 44.3971 200.661 44.3971 122.539 122.479C44.417 200.561 44.417 327.157 122.539 405.239C200.661 483.321 327.321 483.321 405.443 405.239Z" stroke="url(#paint2_linear_8_1121)" stroke-width="2.08" stroke-miterlimit="10"/>
<path d="M263.994 391.012C238.832 391.012 214.236 383.554 193.315 369.583C172.395 355.611 156.089 335.752 146.46 312.518C136.831 289.284 134.312 263.718 139.221 239.053C144.129 214.387 156.246 191.731 174.037 173.948C191.829 156.166 214.497 144.056 239.175 139.149C263.853 134.243 289.432 136.761 312.678 146.385C335.924 156.009 355.792 172.307 369.771 193.217C383.75 214.127 391.211 238.71 391.211 263.859C391.171 297.57 377.755 329.888 353.906 353.725C330.057 377.562 297.722 390.972 263.994 391.012V391.012ZM263.994 157.608C242.965 157.608 222.409 163.84 204.925 175.517C187.441 187.194 173.814 203.791 165.767 223.209C157.721 242.627 155.616 263.994 159.719 284.607C163.823 305.221 173.95 324.155 188.82 339.016C203.69 353.877 222.635 363.996 243.26 368.095C263.884 372.194 285.262 370.088 304.689 362.043C324.116 353.998 340.719 340.376 352.4 322.899C364.081 305.423 370.314 284.876 370.312 263.859C370.278 235.687 359.066 208.68 339.134 188.76C319.203 168.841 292.18 157.638 263.994 157.608V157.608Z" fill="url(#paint3_linear_8_1121)"/>
<path d="M263.994 381.9C240.635 381.9 217.802 374.977 198.38 362.007C178.958 349.036 163.821 330.601 154.882 309.031C145.943 287.462 143.604 263.728 148.161 240.83C152.718 217.932 163.966 196.899 180.483 180.391C197 163.883 218.044 152.64 240.953 148.086C263.863 143.531 287.609 145.869 309.189 154.803C330.77 163.737 349.215 178.867 362.192 198.279C375.169 217.69 382.095 240.512 382.095 263.859C382.062 295.155 369.608 325.16 347.467 347.29C325.326 369.42 295.306 381.867 263.994 381.9V381.9ZM263.994 157.608C242.965 157.608 222.409 163.84 204.925 175.517C187.441 187.194 173.814 203.791 165.767 223.209C157.721 242.627 155.616 263.994 159.719 284.607C163.823 305.221 173.95 324.155 188.82 339.016C203.69 353.877 222.635 363.996 243.26 368.095C263.884 372.194 285.262 370.088 304.689 362.043C324.116 353.998 340.719 340.376 352.4 322.899C364.081 305.423 370.314 284.876 370.312 263.859C370.278 235.687 359.066 208.679 339.134 188.76C319.203 168.841 292.18 157.638 263.994 157.608V157.608Z" fill="url(#paint4_linear_8_1121)"/>
<path d="M263.994 381.9C240.635 381.9 217.802 374.977 198.38 362.007C178.958 349.036 163.821 330.601 154.882 309.031C145.943 287.462 143.604 263.728 148.161 240.83C152.718 217.932 163.966 196.899 180.483 180.391C197 163.883 218.044 152.64 240.953 148.086C263.863 143.531 287.609 145.869 309.189 154.803C330.77 163.737 349.215 178.867 362.192 198.279C375.169 217.69 382.095 240.512 382.095 263.859C382.062 295.155 369.608 325.16 347.467 347.29C325.326 369.42 295.306 381.867 263.994 381.9V381.9ZM263.994 157.608C242.965 157.608 222.409 163.84 204.925 175.517C187.441 187.194 173.814 203.791 165.767 223.209C157.721 242.627 155.616 263.994 159.719 284.607C163.823 305.221 173.95 324.155 188.82 339.016C203.69 353.877 222.635 363.996 243.26 368.095C263.884 372.194 285.262 370.088 304.689 362.043C324.116 353.998 340.719 340.376 352.4 322.899C364.081 305.423 370.314 284.876 370.312 263.859C370.278 235.687 359.066 208.679 339.134 188.76C319.203 168.841 292.18 157.638 263.994 157.608V157.608Z" fill="url(#paint5_linear_8_1121)"/>
<path d="M236.052 291.799C235.609 291.357 235.167 290.902 234.787 290.447" stroke="#FF5858" stroke-width="10.36" stroke-miterlimit="10"/>
<path d="M290.595 234.63C291.05 235.047 291.506 235.476 291.948 235.893" stroke="#FF5858" stroke-width="10.36" stroke-miterlimit="10"/>
<path d="M291.948 235.931C292.391 236.374 292.821 236.816 293.213 237.283" stroke="#FF5858" stroke-width="2.96" stroke-miterlimit="10"/>
<path d="M237.405 293.088C236.937 292.671 236.494 292.241 236.052 291.824" stroke="#FF5858" stroke-width="2.96" stroke-miterlimit="10"/>
<path d="M263.994 428.177C354.79 428.177 428.396 354.609 428.396 263.859C428.396 173.109 354.79 99.541 263.994 99.541C173.197 99.541 99.5919 173.109 99.5919 263.859C99.5919 354.609 173.197 428.177 263.994 428.177Z" stroke="#FF5858" stroke-width="4.17" stroke-miterlimit="10"/>
<g style="mix-blend-mode:screen">
<g style="mix-blend-mode:screen" opacity="0.6">
<path d="M335.227 518L313.935 441.888C349.038 432.069 380.439 412.069 404.171 384.415L464.088 435.974C430.194 475.45 385.35 503.995 335.227 518V518Z" fill="url(#paint6_linear_8_1121)"/>
</g>
<path opacity="0.2" d="M485.885 406.909L419.469 363.943C438.738 334.128 448.968 299.379 448.928 263.884C448.928 262.974 448.928 262.064 448.928 261.155C448.572 231.251 440.879 201.892 426.524 175.653L495.962 137.742C516.364 175.324 527.349 217.289 527.975 260.043C527.975 261.306 527.975 262.57 527.975 263.897C528.047 314.628 513.429 364.297 485.885 406.909V406.909Z" fill="url(#paint7_linear_8_1121)"/>
<path opacity="0.2" d="M8.55958 330.696C3.17636 310.102 0.30235 288.933 1.04496e-05 267.65C1.04496e-05 266.386 1.04496e-05 265.123 1.04496e-05 263.796C-0.0256595 234.665 4.79394 205.732 14.2617 178.181L89.0473 203.846C82.4224 223.156 79.0513 243.432 79.0717 263.846C79.0717 264.743 79.0717 265.653 79.0717 266.563C79.2769 281.492 81.2806 296.342 85.0394 310.792L8.55958 330.696Z" fill="url(#paint8_linear_8_1121)"/>
<g style="mix-blend-mode:screen" opacity="0.8">
<path d="M195.896 91.9589L166.817 18.4752C196.569 6.68709 228.224 0.42609 260.226 2.33438e-06C279.957 -0.279669 299.658 1.6318 318.967 5.69925L302.531 83.0246C288.979 80.1636 275.15 78.82 261.301 79.0187C238.894 79.3231 216.73 83.7082 195.896 91.9589V91.9589Z" fill="url(#paint9_linear_8_1121)"/>
</g>
</g>
<g style="mix-blend-mode:screen" opacity="0.8">
<path d="M464.012 261.003C464.568 300.546 453.38 339.367 431.863 372.555C410.346 405.744 379.466 431.811 343.128 447.459C306.79 463.108 266.625 467.635 227.712 460.47C188.8 453.304 152.887 434.767 124.514 407.202C96.1413 379.638 76.5834 344.283 68.3132 305.609C60.0429 266.935 63.4317 226.679 78.051 189.93C92.6704 153.181 117.864 121.59 150.446 99.1509C183.028 76.712 221.535 64.4332 261.098 63.867" stroke="url(#paint10_linear_8_1121)" stroke-width="22.2" stroke-miterlimit="10"/>
</g>
<g style="mix-blend-mode:screen">
<path d="M261.642 99.5537C305.234 98.9303 347.288 115.64 378.554 146.008C409.819 176.376 427.734 217.913 428.358 261.483C428.981 305.053 412.263 347.086 381.879 378.335C351.496 409.584 309.937 427.49 266.345 428.114" stroke="url(#paint11_linear_8_1121)" stroke-width="22.2" stroke-miterlimit="10" style="mix-blend-mode:screen"/>
<path d="M261.642 99.5537C305.234 98.9303 347.288 115.64 378.554 146.008C409.819 176.376 427.734 217.913 428.358 261.483C428.981 305.053 412.263 347.086 381.879 378.335C351.496 409.584 309.937 427.49 266.345 428.114" stroke="url(#paint12_linear_8_1121)" stroke-width="22.2" stroke-miterlimit="10"/>
</g>
<g style="mix-blend-mode:screen" opacity="0.5">
<path d="M70.1202 345.253C66.4178 336.525 63.2676 327.573 60.6882 318.45L95.4322 308.669C97.8372 317.187 100.845 325.524 104.434 333.615C121.364 372.386 151.111 404.165 188.69 423.628L171.95 455.637C127.244 432.22 91.7914 394.358 71.3719 348.223L70.1202 345.253Z" fill="url(#paint13_linear_8_1121)"/>
</g>
<path d="M287.581 320.777C319.031 307.756 333.966 271.72 320.939 240.286C307.912 208.852 271.857 193.925 240.407 206.946C208.957 219.966 194.023 256.003 207.049 287.436C220.076 318.87 256.132 333.797 287.581 320.777Z" stroke="url(#paint14_linear_8_1121)" stroke-width="15.67" stroke-miterlimit="10"/>
<path d="M287.581 320.777C319.031 307.756 333.966 271.72 320.939 240.286C307.912 208.852 271.857 193.925 240.407 206.946C208.957 219.966 194.023 256.003 207.049 287.436C220.076 318.87 256.132 333.797 287.581 320.777Z" stroke="url(#paint15_linear_8_1121)" stroke-width="5.92" stroke-miterlimit="10"/>
<path d="M263.994 289.423C278.12 289.423 289.571 277.978 289.571 263.859C289.571 249.74 278.12 238.294 263.994 238.294C249.868 238.294 238.416 249.74 238.416 263.859C238.416 277.978 249.868 289.423 263.994 289.423Z" stroke="url(#paint16_linear_8_1121)" stroke-width="4.44" stroke-miterlimit="10"/>
<g style="mix-blend-mode:screen" opacity="0.5">
<path opacity="0.3" d="M233.902 500.548C201.66 496.522 170.593 485.897 142.643 469.335L183.696 399.946C202.172 410.886 222.706 417.903 244.017 420.557L233.902 500.548Z" fill="url(#paint17_linear_8_1121)"/>
<g style="mix-blend-mode:screen">
<path d="M398.507 460.957L352.99 394.398C370.769 382.283 385.886 366.67 397.419 348.514L465.466 391.808C448.084 419.169 425.3 442.699 398.507 460.957V460.957Z" fill="url(#paint18_linear_8_1121)"/>
</g>
<g style="mix-blend-mode:screen">
<path d="M51.3827 372.36L123.197 335.649C132.97 354.783 146.548 371.721 163.1 385.426L111.616 447.486" fill="url(#paint19_linear_8_1121)"/>
</g>
<g style="mix-blend-mode:screen" opacity="0.5">
<path d="M110.971 224.28L32.8728 204.149C40.9576 172.706 55.4311 143.262 75.3924 117.65L139.077 167.098C125.886 184.031 116.319 203.495 110.971 224.28V224.28Z" fill="url(#paint20_linear_8_1121)"/>
</g>
<g style="mix-blend-mode:screen">
<path d="M375.837 152.288C360.681 137.048 342.555 125.083 322.583 117.132L352.51 42.2579C382.662 54.2692 410.03 72.333 432.922 95.3329L375.837 152.288Z" fill="url(#paint21_linear_8_1121)"/>
</g>
<path opacity="0.2" d="M156.07 148.496L100.97 89.621C124.642 67.4282 152.611 50.3158 183.152 39.3387L210.474 115.16C190.251 122.44 171.735 133.785 156.07 148.496V148.496Z" fill="url(#paint22_linear_8_1121)"/>
</g>
</g>
<defs>
<linearGradient id="paint0_linear_8_1121" x1="175.364" y1="263.859" x2="352.636" y2="263.859" gradientUnits="userSpaceOnUse">
<stop stop-color="#FF5858"/>
<stop offset="1" stop-color="#992222"/>
</linearGradient>
<linearGradient id="paint1_linear_8_1121" x1="160.822" y1="366.975" x2="367.069" y2="160.623" gradientUnits="userSpaceOnUse">
<stop stop-color="#FF5858"/>
<stop offset="1" stop-color="#992222"/>
</linearGradient>
<linearGradient id="paint2_linear_8_1121" x1="121.03" y1="406.747" x2="406.827" y2="120.804" gradientUnits="userSpaceOnUse">
<stop stop-color="#FF5858"/>
<stop offset="1" stop-color="#992222"/>
</linearGradient>
<linearGradient id="paint3_linear_8_1121" x1="164.364" y1="326.033" x2="436.807" y2="246.978" gradientUnits="userSpaceOnUse">
<stop stop-color="#FF5858"/>
<stop offset="1" stop-color="#992222"/>
</linearGradient>
<linearGradient id="paint4_linear_8_1121" x1="340.423" y1="187.469" x2="185.027" y2="342.957" gradientUnits="userSpaceOnUse">
<stop stop-color="#FF5858"/>
<stop offset="1" stop-color="#992222"/>
</linearGradient>
<linearGradient id="paint5_linear_8_1121" x1="340.423" y1="187.469" x2="185.027" y2="342.957" gradientUnits="userSpaceOnUse">
<stop stop-color="#FF5858"/>
<stop offset="1" stop-color="#992222"/>
</linearGradient>
<linearGradient id="paint6_linear_8_1121" x1="437.597" y1="407.983" x2="350.266" y2="506.153" gradientUnits="userSpaceOnUse">
<stop stop-color="#FF5858"/>
<stop offset="1" stop-color="#992222"/>
</linearGradient>
<linearGradient id="paint7_linear_8_1121" x1="508.832" y1="185.231" x2="385.949" y2="234.771" gradientUnits="userSpaceOnUse">
<stop stop-color="#FF5858"/>
<stop offset="1" stop-color="#992222"/>
</linearGradient>
<linearGradient id="paint8_linear_8_1121" x1="73.337" y1="205.088" x2="-14.091" y2="256.138" gradientUnits="userSpaceOnUse">
<stop stop-color="#FF5858"/>
<stop offset="1" stop-color="#992222"/>
</linearGradient>
<linearGradient id="paint9_linear_8_1121" x1="292.124" y1="16.2019" x2="238.512" y2="104.887" gradientUnits="userSpaceOnUse">
<stop stop-color="#FF5858"/>
<stop offset="1" stop-color="#992222"/>
</linearGradient>
<linearGradient id="paint10_linear_8_1121" x1="61.7595" y1="263.823" x2="466.195" y2="263.823" gradientUnits="userSpaceOnUse">
<stop stop-color="#FF5858"/>
<stop offset="1" stop-color="#992222"/>
</linearGradient>
<linearGradient id="paint11_linear_8_1121" x1="261.44" y1="263.859" x2="442.442" y2="263.859" gradientUnits="userSpaceOnUse">
<stop stop-color="#256075"/>
<stop offset="1" stop-color="#3552BE"/>
</linearGradient>
<linearGradient id="paint12_linear_8_1121" x1="260.753" y1="263.825" x2="429.276" y2="263.825" gradientUnits="userSpaceOnUse">
<stop stop-color="#FF5858"/>
<stop offset="1" stop-color="#992222"/>
</linearGradient>
<linearGradient id="paint13_linear_8_1121" x1="166.107" y1="334.598" x2="70.284" y2="418.062" gradientUnits="userSpaceOnUse">
<stop stop-color="#FF5858"/>
<stop offset="1" stop-color="#992222"/>
</linearGradient>
<linearGradient id="paint14_linear_8_1121" x1="206.442" y1="287.688" x2="321.537" y2="239.989" gradientUnits="userSpaceOnUse">
<stop stop-color="#FFBCBC"/>
<stop offset="1" stop-color="#F36A6A"/>
</linearGradient>
<linearGradient id="paint15_linear_8_1121" x1="206.442" y1="287.688" x2="321.537" y2="239.989" gradientUnits="userSpaceOnUse">
<stop stop-color="#FF5858"/>
<stop offset="1" stop-color="#992222"/>
</linearGradient>
<linearGradient id="paint16_linear_8_1121" x1="238.143" y1="263.859" x2="289.848" y2="263.859" gradientUnits="userSpaceOnUse">
<stop stop-color="#FF5858"/>
<stop offset="1" stop-color="#992222"/>
</linearGradient>
<linearGradient id="paint17_linear_8_1121" x1="226.132" y1="417.695" x2="159.915" y2="484.426" gradientUnits="userSpaceOnUse">
<stop stop-color="#FF5858"/>
<stop offset="1" stop-color="#992222"/>
</linearGradient>
<linearGradient id="paint18_linear_8_1121" x1="445.622" y1="368.352" x2="371.609" y2="442.392" gradientUnits="userSpaceOnUse">
<stop stop-color="#FF5858"/>
<stop offset="1" stop-color="#992222"/>
</linearGradient>
<linearGradient id="paint19_linear_8_1121" x1="143.39" y1="355.38" x2="69.7758" y2="428.921" gradientUnits="userSpaceOnUse">
<stop stop-color="#FF5858"/>
<stop offset="1" stop-color="#992222"/>
</linearGradient>
<linearGradient id="paint20_linear_8_1121" x1="120.34" y1="136.462" x2="50.1534" y2="206.374" gradientUnits="userSpaceOnUse">
<stop stop-color="#FF5858"/>
<stop offset="1" stop-color="#992222"/>
</linearGradient>
<linearGradient id="paint21_linear_8_1121" x1="413.455" y1="61.67" x2="341.031" y2="134.304" gradientUnits="userSpaceOnUse">
<stop stop-color="#FF5858"/>
<stop offset="1" stop-color="#992222"/>
</linearGradient>
<linearGradient id="paint22_linear_8_1121" x1="191.155" y1="58.5971" x2="119.305" y2="130.681" gradientUnits="userSpaceOnUse">
<stop stop-color="#FF5858"/>
<stop offset="1" stop-color="#992222"/>
</linearGradient>
<clipPath id="clip0_8_1121">
<rect width="528" height="518" fill="white"/>
</clipPath>
</defs>
</svg>
