<svg width="381" height="381" viewBox="0 0 381 381" fill="none" xmlns="http://www.w3.org/2000/svg">
<path opacity="0.3" d="M285.559 285.414C338.129 232.871 338.129 147.681 285.559 95.138C232.989 42.5948 147.757 42.5948 95.1865 95.138C42.6164 147.681 42.6164 232.871 95.1865 285.414C147.757 337.957 232.989 337.957 285.559 285.414Z" stroke="#FF5858" stroke-width="2.96" stroke-miterlimit="10" stroke-dasharray="2.99 8.96"/>
<path opacity="0.3" d="M157.959 214.294C152.129 206.56 149.344 196.956 150.131 187.304C150.918 177.653 155.224 168.627 162.23 161.939C169.237 155.251 178.456 151.367 188.138 151.025C197.821 150.682 207.292 153.905 214.753 160.082" stroke="#FF5858" stroke-width="10.36" stroke-miterlimit="10" stroke-dasharray="2.89 2.89"/>
<path opacity="0.3" d="M224.452 170C229.234 177.841 231.136 187.102 229.829 196.192C228.522 205.281 224.089 213.632 217.29 219.81C210.492 225.987 201.753 229.605 192.576 230.042C183.398 230.479 174.355 227.707 167 222.203" stroke="#FF5858" stroke-width="2.96" stroke-miterlimit="10" stroke-dasharray="2.98 5.95"/>
<path opacity="0.1" d="M277.388 205.348C285.199 157.256 252.524 111.941 204.407 104.135C156.29 96.3284 110.953 128.986 103.142 177.079C95.3316 225.171 128.006 270.486 176.123 278.292C224.24 286.099 269.578 253.441 277.388 205.348Z" stroke="#FF5858" stroke-width="18.76" stroke-miterlimit="10" stroke-dasharray="4.48 11.19"/>
</svg>
